<?xml version="1.0" encoding="UTF-8"?>
<svg width="258px" height="28px" viewBox="0 0 258 28" version="1.1" xmlns="http://www.w3.org/2000/svg" xmlns:xlink="http://www.w3.org/1999/xlink">
    <!-- Generator: Sketch 61.2 (89653) - https://sketch.com -->
    <title>形状结合</title>
    <desc>Created with Sketch.</desc>
    <g id="数据大屏（全）" stroke="none" stroke-width="1" fill="none" fill-rule="evenodd">
        <g id="智慧炼厂备份" transform="translate(-1930.000000, -691.000000)" fill="#040C1E">
            <g id="编组-7" transform="translate(47.000000, 36.000000)">
                <path d="M2141,655 L2141,683 L1883,683 L1883,655 L2141,655 Z M1898,659 C1896.89543,659 1896,659.895431 1896,661 L1896,661 L1896,677 C1896,678.104569 1896.89543,679 1898,679 C1899.10457,679 1900,678.104569 1900,677 L1900,677 L1900,661 C1900,659.895431 1899.10457,659 1898,659 Z M1904,659 C1902.89543,659 1902,659.895431 1902,661 L1902,661 L1902,677 C1902,678.104569 1902.89543,679 1904,679 C1905.10457,679 1906,678.104569 1906,677 L1906,677 L1906,661 C1906,659.895431 1905.10457,659 1904,659 Z M1910,659 C1908.89543,659 1908,659.895431 1908,661 L1908,661 L1908,677 C1908,678.104569 1908.89543,679 1910,679 C1911.10457,679 1912,678.104569 1912,677 L1912,677 L1912,661 C1912,659.895431 1911.10457,659 1910,659 Z M1916,659 C1914.89543,659 1914,659.895431 1914,661 L1914,661 L1914,677 C1914,678.104569 1914.89543,679 1916,679 C1917.10457,679 1918,678.104569 1918,677 L1918,677 L1918,661 C1918,659.895431 1917.10457,659 1916,659 Z M1922,659 C1920.89543,659 1920,659.895431 1920,661 L1920,661 L1920,677 C1920,678.104569 1920.89543,679 1922,679 C1923.10457,679 1924,678.104569 1924,677 L1924,677 L1924,661 C1924,659.895431 1923.10457,659 1922,659 Z M1928,659 C1926.89543,659 1926,659.895431 1926,661 L1926,661 L1926,677 C1926,678.104569 1926.89543,679 1928,679 C1929.10457,679 1930,678.104569 1930,677 L1930,677 L1930,661 C1930,659.895431 1929.10457,659 1928,659 Z M1934,659 C1932.89543,659 1932,659.895431 1932,661 L1932,661 L1932,677 C1932,678.104569 1932.89543,679 1934,679 C1935.10457,679 1936,678.104569 1936,677 L1936,677 L1936,661 C1936,659.895431 1935.10457,659 1934,659 Z M1940,659 C1938.89543,659 1938,659.895431 1938,661 L1938,661 L1938,677 C1938,678.104569 1938.89543,679 1940,679 C1941.10457,679 1942,678.104569 1942,677 L1942,677 L1942,661 C1942,659.895431 1941.10457,659 1940,659 Z M1946,659 C1944.89543,659 1944,659.895431 1944,661 L1944,661 L1944,677 C1944,678.104569 1944.89543,679 1946,679 C1947.10457,679 1948,678.104569 1948,677 L1948,677 L1948,661 C1948,659.895431 1947.10457,659 1946,659 Z M1952,659 C1950.89543,659 1950,659.895431 1950,661 L1950,661 L1950,677 C1950,678.104569 1950.89543,679 1952,679 C1953.10457,679 1954,678.104569 1954,677 L1954,677 L1954,661 C1954,659.895431 1953.10457,659 1952,659 Z M1958,659 C1956.89543,659 1956,659.895431 1956,661 L1956,661 L1956,677 C1956,678.104569 1956.89543,679 1958,679 C1959.10457,679 1960,678.104569 1960,677 L1960,677 L1960,661 C1960,659.895431 1959.10457,659 1958,659 Z M1964,659 C1962.89543,659 1962,659.895431 1962,661 L1962,661 L1962,677 C1962,678.104569 1962.89543,679 1964,679 C1965.10457,679 1966,678.104569 1966,677 L1966,677 L1966,661 C1966,659.895431 1965.10457,659 1964,659 Z M1970,659 C1968.89543,659 1968,659.895431 1968,661 L1968,661 L1968,677 C1968,678.104569 1968.89543,679 1970,679 C1971.10457,679 1972,678.104569 1972,677 L1972,677 L1972,661 C1972,659.895431 1971.10457,659 1970,659 Z M1976,659 C1974.89543,659 1974,659.895431 1974,661 L1974,661 L1974,677 C1974,678.104569 1974.89543,679 1976,679 C1977.10457,679 1978,678.104569 1978,677 L1978,677 L1978,661 C1978,659.895431 1977.10457,659 1976,659 Z M1982,659 C1980.89543,659 1980,659.895431 1980,661 L1980,661 L1980,677 C1980,678.104569 1980.89543,679 1982,679 C1983.10457,679 1984,678.104569 1984,677 L1984,677 L1984,661 C1984,659.895431 1983.10457,659 1982,659 Z M1988,659 C1986.89543,659 1986,659.895431 1986,661 L1986,661 L1986,677 C1986,678.104569 1986.89543,679 1988,679 C1989.10457,679 1990,678.104569 1990,677 L1990,677 L1990,661 C1990,659.895431 1989.10457,659 1988,659 Z M1994,659 C1992.89543,659 1992,659.895431 1992,661 L1992,661 L1992,677 C1992,678.104569 1992.89543,679 1994,679 C1995.10457,679 1996,678.104569 1996,677 L1996,677 L1996,661 C1996,659.895431 1995.10457,659 1994,659 Z M2000,659 C1998.89543,659 1998,659.895431 1998,661 L1998,661 L1998,677 C1998,678.104569 1998.89543,679 2000,679 C2001.10457,679 2002,678.104569 2002,677 L2002,677 L2002,661 C2002,659.895431 2001.10457,659 2000,659 Z M2006,659 C2004.89543,659 2004,659.895431 2004,661 L2004,661 L2004,677 C2004,678.104569 2004.89543,679 2006,679 C2007.10457,679 2008,678.104569 2008,677 L2008,677 L2008,661 C2008,659.895431 2007.10457,659 2006,659 Z M2012,659 C2010.89543,659 2010,659.895431 2010,661 L2010,661 L2010,677 C2010,678.104569 2010.89543,679 2012,679 C2013.10457,679 2014,678.104569 2014,677 L2014,677 L2014,661 C2014,659.895431 2013.10457,659 2012,659 Z M2018,659 C2016.89543,659 2016,659.895431 2016,661 L2016,661 L2016,677 C2016,678.104569 2016.89543,679 2018,679 C2019.10457,679 2020,678.104569 2020,677 L2020,677 L2020,661 C2020,659.895431 2019.10457,659 2018,659 Z M2024,659 C2022.89543,659 2022,659.895431 2022,661 L2022,661 L2022,677 C2022,678.104569 2022.89543,679 2024,679 C2025.10457,679 2026,678.104569 2026,677 L2026,677 L2026,661 C2026,659.895431 2025.10457,659 2024,659 Z M2030,659 C2028.89543,659 2028,659.895431 2028,661 L2028,661 L2028,677 C2028,678.104569 2028.89543,679 2030,679 C2031.10457,679 2032,678.104569 2032,677 L2032,677 L2032,661 C2032,659.895431 2031.10457,659 2030,659 Z M2036,659 C2034.89543,659 2034,659.895431 2034,661 L2034,661 L2034,677 C2034,678.104569 2034.89543,679 2036,679 C2037.10457,679 2038,678.104569 2038,677 L2038,677 L2038,661 C2038,659.895431 2037.10457,659 2036,659 Z M2042,659 C2040.89543,659 2040,659.895431 2040,661 L2040,661 L2040,677 C2040,678.104569 2040.89543,679 2042,679 C2043.10457,679 2044,678.104569 2044,677 L2044,677 L2044,661 C2044,659.895431 2043.10457,659 2042,659 Z M2048,659 C2046.89543,659 2046,659.895431 2046,661 L2046,661 L2046,677 C2046,678.104569 2046.89543,679 2048,679 C2049.10457,679 2050,678.104569 2050,677 L2050,677 L2050,661 C2050,659.895431 2049.10457,659 2048,659 Z M2054,659 C2052.89543,659 2052,659.895431 2052,661 L2052,661 L2052,677 C2052,678.104569 2052.89543,679 2054,679 C2055.10457,679 2056,678.104569 2056,677 L2056,677 L2056,661 C2056,659.895431 2055.10457,659 2054,659 Z M2060,659 C2058.89543,659 2058,659.895431 2058,661 L2058,661 L2058,677 C2058,678.104569 2058.89543,679 2060,679 C2061.10457,679 2062,678.104569 2062,677 L2062,677 L2062,661 C2062,659.895431 2061.10457,659 2060,659 Z M2066,659 C2064.89543,659 2064,659.895431 2064,661 L2064,661 L2064,677 C2064,678.104569 2064.89543,679 2066,679 C2067.10457,679 2068,678.104569 2068,677 L2068,677 L2068,661 C2068,659.895431 2067.10457,659 2066,659 Z M2072,659 C2070.89543,659 2070,659.895431 2070,661 L2070,661 L2070,677 C2070,678.104569 2070.89543,679 2072,679 C2073.10457,679 2074,678.104569 2074,677 L2074,677 L2074,661 C2074,659.895431 2073.10457,659 2072,659 Z M2078,659 C2076.89543,659 2076,659.895431 2076,661 L2076,661 L2076,677 C2076,678.104569 2076.89543,679 2078,679 C2079.10457,679 2080,678.104569 2080,677 L2080,677 L2080,661 C2080,659.895431 2079.10457,659 2078,659 Z M2084,659 C2082.89543,659 2082,659.895431 2082,661 L2082,661 L2082,677 C2082,678.104569 2082.89543,679 2084,679 C2085.10457,679 2086,678.104569 2086,677 L2086,677 L2086,661 C2086,659.895431 2085.10457,659 2084,659 Z M2090,659 C2088.89543,659 2088,659.895431 2088,661 L2088,661 L2088,677 C2088,678.104569 2088.89543,679 2090,679 C2091.10457,679 2092,678.104569 2092,677 L2092,677 L2092,661 C2092,659.895431 2091.10457,659 2090,659 Z M2096,659 C2094.89543,659 2094,659.895431 2094,661 L2094,661 L2094,677 C2094,678.104569 2094.89543,679 2096,679 C2097.10457,679 2098,678.104569 2098,677 L2098,677 L2098,661 C2098,659.895431 2097.10457,659 2096,659 Z M2102,659 C2100.89543,659 2100,659.895431 2100,661 L2100,661 L2100,677 C2100,678.104569 2100.89543,679 2102,679 C2103.10457,679 2104,678.104569 2104,677 L2104,677 L2104,661 C2104,659.895431 2103.10457,659 2102,659 Z M2108,659 C2106.89543,659 2106,659.895431 2106,661 L2106,661 L2106,677 C2106,678.104569 2106.89543,679 2108,679 C2109.10457,679 2110,678.104569 2110,677 L2110,677 L2110,661 C2110,659.895431 2109.10457,659 2108,659 Z M2114,659 C2112.89543,659 2112,659.895431 2112,661 L2112,661 L2112,677 C2112,678.104569 2112.89543,679 2114,679 C2115.10457,679 2116,678.104569 2116,677 L2116,677 L2116,661 C2116,659.895431 2115.10457,659 2114,659 Z M2120,659 C2118.89543,659 2118,659.895431 2118,661 L2118,661 L2118,677 C2118,678.104569 2118.89543,679 2120,679 C2121.10457,679 2122,678.104569 2122,677 L2122,677 L2122,661 C2122,659.895431 2121.10457,659 2120,659 Z M2126,659 C2124.89543,659 2124,659.895431 2124,661 L2124,661 L2124,677 C2124,678.104569 2124.89543,679 2126,679 C2127.10457,679 2128,678.104569 2128,677 L2128,677 L2128,661 C2128,659.895431 2127.10457,659 2126,659 Z M2132,659 C2130.89543,659 2130,659.895431 2130,661 L2130,661 L2130,677 C2130,678.104569 2130.89543,679 2132,679 C2133.10457,679 2134,678.104569 2134,677 L2134,677 L2134,661 C2134,659.895431 2133.10457,659 2132,659 Z" id="形状结合"></path>
            </g>
        </g>
    </g>
</svg>