<?xml version="1.0" encoding="UTF-8"?>
<svg width="48px" height="48px" viewBox="0 0 48 48" version="1.1" xmlns="http://www.w3.org/2000/svg" xmlns:xlink="http://www.w3.org/1999/xlink">
    <!-- Generator: Sketch 61.2 (89653) - https://sketch.com -->
    <title>car_right_slice</title>
    <desc>Created with Sketch.</desc>
    <g id="数据大屏（全）" stroke="none" stroke-width="1" fill="none" fill-rule="evenodd">
        <g id="画板" transform="translate(0.000000, -105.000000)" fill-rule="nonzero">
            <g id="car_right" transform="translate(0.000000, 105.000000)">
                <rect id="矩形" fill="#000000" opacity="0" x="0" y="0" width="48" height="48"></rect>
                <path d="M0.540890625,7.60734375 L0.540890625,29.233125 L32.9139844,29.233125 L32.9419219,7.60734375 C32.9419219,7.06607812 32.5059375,6.62732812 31.9693594,6.62732812 L1.51139063,6.62732812 C0.975,6.62732812 0.540890625,7.066125 0.540890625,7.60734375 L0.540890625,7.60734375 Z M18.3349688,36.3329062 L32.6071406,36.3329062 C32.6062969,36.2933437 32.6016094,36.253875 32.6016094,36.2125781 C32.6016094,35.9211562 32.7758906,34.6903125 32.8700625,34.3726406 C33.2277187,33.1624687 34.8388125,29.7496406 39.0099844,29.7496406 C43.2589687,29.7496406 44.7930469,33.1624219 45.15075,34.3726406 C45.2438437,34.6903594 45.4182656,35.9212031 45.4182656,36.2125781 C45.4182656,36.253875 45.4135312,36.2933437 45.4117031,36.3329062 L46.475625,36.3329062 C47.0121562,36.3329062 47.4471562,35.895 47.4471562,35.3537344 L47.4471562,30.3192656 C47.4471562,30.0702656 47.3495156,29.8436719 47.198625,29.6707969 L47.198625,22.3485 C47.198625,16.6845 43.4946094,13.7566406 43.3363125,13.6344844 C43.1659687,13.5030469 42.9590625,13.4325937 42.7457812,13.4325937 L34.9309687,13.4325937 C34.6431094,13.4325937 34.3879219,13.5613594 34.2099844,13.7624062 L34.2099844,29.8872187 C34.2099844,30.2825625 33.9543281,30.53925 33.5625469,30.53925 L14.9985469,30.53925 C18.117,31.7454844 18.3332813,34.9362656 18.3351563,36.3329062 L18.3349688,36.3329062 Z M35.9025,21.1280625 L35.9025,15.392625 L42.3860625,15.392625 C43.0325156,15.9911719 44.8032656,17.9107969 45.1797656,21.1280625 L35.9025,21.1280625 L35.9025,21.1280625 Z M2.51498438,30.2902031 C2.51498438,30.299625 2.51221875,35.3540156 2.51221875,35.3540156 C2.51221875,35.895375 2.9461875,36.3331875 3.48271875,36.3331875 L5.5321875,36.3331875 C5.14570313,33.3117187 7.87532813,30.5554687 9.37921875,30.2902969 C8.15315625,30.2902031 2.51498438,30.2902031 2.51498438,30.2902031 L2.51498438,30.2902031 Z M39.0100781,31.05675 C41.8583437,31.05675 44.1673125,33.3658125 44.1673125,36.2140312 C44.1673125,39.0622031 41.8582969,41.3712187 39.0100781,41.3712187 C36.1618594,41.3712187 33.8528906,39.0621562 33.8528906,36.2140312 C33.8528906,33.3657656 36.1618594,31.05675 39.0100781,31.05675 Z M36.6272812,36.2140781 C36.6272812,37.53 37.6941094,38.5967344 39.0100781,38.5967344 C40.3260469,38.5967344 41.3927812,37.5299531 41.3927812,36.2140781 C41.3927812,34.8980625 40.326,33.8313281 39.0100781,33.8313281 C37.6940625,33.8313281 36.6272812,34.8980625 36.6272812,36.2140781 Z M11.9789063,31.05675 C14.8271719,31.05675 17.1360938,33.3658125 17.1360938,36.2140312 C17.1360938,39.0622031 14.827125,41.3712187 11.9789063,41.3712187 C9.1306875,41.3712187 6.82167188,39.0621562 6.82167188,36.2140312 C6.82167188,33.3657656 9.1306875,31.05675 11.9789063,31.05675 Z M9.5960625,36.2140781 C9.5960625,37.53 10.6628438,38.5967344 11.9788125,38.5967344 C13.2947813,38.5967344 14.3615625,37.5299531 14.3615625,36.2140781 C14.3615625,34.8980625 13.2947813,33.8313281 11.9788125,33.8313281 C10.6628438,33.8313281 9.5960625,34.8980625 9.5960625,36.2140781 Z" id="形状" fill="#B1E2FF"></path>
            </g>
        </g>
    </g>
</svg>