<?xml version="1.0" encoding="UTF-8"?>
<svg width="48px" height="48px" viewBox="0 0 48 48" version="1.1" xmlns="http://www.w3.org/2000/svg" xmlns:xlink="http://www.w3.org/1999/xlink">
    <!-- Generator: Sketch 61.2 (89653) - https://sketch.com -->
    <title>car_left_slice</title>
    <desc>Created with Sketch.</desc>
    <g id="数据大屏（全）" stroke="none" stroke-width="1" fill="none" fill-rule="evenodd">
        <g id="画板" transform="translate(0.000000, -278.000000)" fill-rule="nonzero">
            <g id="car_left" transform="translate(0.000000, 278.000000)">
                <rect id="矩形" fill="#000000" opacity="0" transform="translate(24.000000, 24.000000) scale(-1, 1) translate(-24.000000, -24.000000) " x="0" y="0" width="48" height="48"></rect>
                <path d="M16.3755937,36.3329063 L30.6477656,36.3329063 C30.6469219,36.2933438 30.6422344,36.253875 30.6422344,36.2125781 C30.6422344,35.9211563 30.8165156,34.6903125 30.9106875,34.3726406 C31.2683437,33.1624688 32.8794375,29.7496406 37.0506094,29.7496406 C41.2995937,29.7496406 42.8336719,33.1624219 43.191375,34.3726406 C43.2844687,34.6903594 43.4588906,35.9212031 43.4588906,36.2125781 C43.4588906,36.253875 43.4541562,36.2933438 43.4523281,36.3329063 L44.51625,36.3329063 C45.0527812,36.3329063 45.4877812,35.895 45.4877812,35.3537344 L45.4877812,30.3192656 C45.4877812,30.0702656 45.3901406,29.8436719 45.23925,29.6707969 L45.23925,22.3485 C45.23925,16.6845 41.5352344,13.7566406 41.3769375,13.6344844 C41.2065937,13.5030469 40.9996875,13.4325938 40.7864062,13.4325938 L32.9715937,13.4325938 C32.6837344,13.4325938 32.4285469,13.5613594 32.2506094,13.7624063 L32.2506094,29.8872188 C32.2506094,30.2825625 31.9949531,30.53925 31.6031719,30.53925 L13.0391719,30.53925 C16.157625,31.7454844 16.3739062,34.9362656 16.3757812,36.3329063 L16.3755937,36.3329063 Z M33.943125,21.1280625 L33.943125,15.392625 L40.4266875,15.392625 C41.0731406,15.9911719 42.8438906,17.9107969 43.2203906,21.1280625 L33.943125,21.1280625 L33.943125,21.1280625 Z M0.555609375,30.2902031 C0.555609375,30.299625 0.55284375,35.3540156 0.55284375,35.3540156 C0.55284375,35.895375 0.9868125,36.3331875 1.52334375,36.3331875 L3.5728125,36.3331875 C3.18632812,33.3117188 5.91595312,30.5554688 7.41984375,30.2902969 C6.19378125,30.2902031 0.555609375,30.2902031 0.555609375,30.2902031 L0.555609375,30.2902031 Z M37.0507031,31.05675 C39.8989687,31.05675 42.2079375,33.3658125 42.2079375,36.2140313 C42.2079375,39.0622031 39.8989219,41.3712188 37.0507031,41.3712188 C34.2024844,41.3712188 31.8935156,39.0621563 31.8935156,36.2140313 C31.8935156,33.3657656 34.2024844,31.05675 37.0507031,31.05675 Z M34.6679062,36.2140781 C34.6679062,37.53 35.7347344,38.5967344 37.0507031,38.5967344 C38.3666719,38.5967344 39.4334062,37.5299531 39.4334062,36.2140781 C39.4334062,34.8980625 38.366625,33.8313281 37.0507031,33.8313281 C35.7346875,33.8313281 34.6679062,34.8980625 34.6679062,36.2140781 Z M10.0195312,31.05675 C12.8677969,31.05675 15.1767187,33.3658125 15.1767187,36.2140313 C15.1767187,39.0622031 12.86775,41.3712188 10.0195312,41.3712188 C7.1713125,41.3712188 4.86229687,39.0621563 4.86229687,36.2140313 C4.86229687,33.3657656 7.1713125,31.05675 10.0195312,31.05675 Z M7.6366875,36.2140781 C7.6366875,37.53 8.70346875,38.5967344 10.0194375,38.5967344 C11.3354062,38.5967344 12.4021875,37.5299531 12.4021875,36.2140781 C12.4021875,34.8980625 11.3354062,33.8313281 10.0194375,33.8313281 C8.70346875,33.8313281 7.6366875,34.8980625 7.6366875,36.2140781 Z" id="形状" fill="#B1E2FF" transform="translate(23.020312, 27.401906) scale(-1, 1) translate(-23.020312, -27.401906) "></path>
                <path d="M15.0580781,7.60734375 L15.0580781,29.233125 L47.4311719,29.233125 L47.4591094,7.60734375 C47.4591094,7.06607813 47.023125,6.62732813 46.4865469,6.62732813 L16.0285781,6.62732813 C15.4921875,6.62732813 15.0580781,7.066125 15.0580781,7.60734375 L15.0580781,7.60734375 Z" id="路径" fill="#B1E2FF" transform="translate(31.258594, 17.930227) scale(-1, 1) translate(-31.258594, -17.930227) "></path>
            </g>
        </g>
    </g>
</svg>