<?xml version="1.0" encoding="UTF-8"?>
<svg width="630px" height="292px" viewBox="0 0 630 292" version="1.1" xmlns="http://www.w3.org/2000/svg" xmlns:xlink="http://www.w3.org/1999/xlink">
    <!-- Generator: Sketch 61.2 (89653) - https://sketch.com -->
    <title>编组 12</title>
    <desc>Created with Sketch.</desc>
    <defs>
        <linearGradient x1="100%" y1="50%" x2="-2.22044605e-14%" y2="50%" id="linearGradient-1">
            <stop stop-color="#4813FF" offset="0%"></stop>
            <stop stop-color="#0AECF9" offset="100%"></stop>
        </linearGradient>
    </defs>
    <g id="数据大屏（全）" stroke="none" stroke-width="1" fill="none" fill-rule="evenodd">
        <g id="智慧炼厂备份" transform="translate(-1968.000000, -225.000000)">
            <g id="编组-7" transform="translate(47.000000, 36.000000)">
                <g id="编组-4" transform="translate(1921.000000, 120.000000)">
                    <g id="编组-12" transform="translate(0.000000, 69.000000)">
                        <path d="M484,0 C564.633573,-1.48121471e-14 630,65.3664265 630,146 C630,226.633573 564.633573,292 484,292 L34,292 L34,174 L484,174 C499.309333,174 511.748987,161.71344 511.996249,146.463031 L512,146 C512,130.536027 499.463973,118 484,118 L484,118 L34,118 L34,0 L484,0 Z" id="形状结合" fill="url(#linearGradient-1)" opacity="0.149999991"></path>
                        <g id="car_right" transform="translate(0.000000, 36.000000)" fill-rule="nonzero">
                            <rect id="矩形" fill="#000000" opacity="0" x="0" y="0" width="48" height="48"></rect>
                            <path d="M0.540890625,7.60734375 L0.540890625,29.233125 L32.9139844,29.233125 L32.9419219,7.60734375 C32.9419219,7.06607812 32.5059375,6.62732812 31.9693594,6.62732812 L1.51139063,6.62732812 C0.975,6.62732812 0.540890625,7.066125 0.540890625,7.60734375 L0.540890625,7.60734375 Z M18.3349688,36.3329062 L32.6071406,36.3329062 C32.6062969,36.2933437 32.6016094,36.253875 32.6016094,36.2125781 C32.6016094,35.9211562 32.7758906,34.6903125 32.8700625,34.3726406 C33.2277187,33.1624687 34.8388125,29.7496406 39.0099844,29.7496406 C43.2589687,29.7496406 44.7930469,33.1624219 45.15075,34.3726406 C45.2438437,34.6903594 45.4182656,35.9212031 45.4182656,36.2125781 C45.4182656,36.253875 45.4135312,36.2933437 45.4117031,36.3329062 L46.475625,36.3329062 C47.0121562,36.3329062 47.4471562,35.895 47.4471562,35.3537344 L47.4471562,30.3192656 C47.4471562,30.0702656 47.3495156,29.8436719 47.198625,29.6707969 L47.198625,22.3485 C47.198625,16.6845 43.4946094,13.7566406 43.3363125,13.6344844 C43.1659687,13.5030469 42.9590625,13.4325937 42.7457812,13.4325937 L34.9309687,13.4325937 C34.6431094,13.4325937 34.3879219,13.5613594 34.2099844,13.7624062 L34.2099844,29.8872187 C34.2099844,30.2825625 33.9543281,30.53925 33.5625469,30.53925 L14.9985469,30.53925 C18.117,31.7454844 18.3332813,34.9362656 18.3351563,36.3329062 L18.3349688,36.3329062 Z M35.9025,21.1280625 L35.9025,15.392625 L42.3860625,15.392625 C43.0325156,15.9911719 44.8032656,17.9107969 45.1797656,21.1280625 L35.9025,21.1280625 L35.9025,21.1280625 Z M2.51498438,30.2902031 C2.51498438,30.299625 2.51221875,35.3540156 2.51221875,35.3540156 C2.51221875,35.895375 2.9461875,36.3331875 3.48271875,36.3331875 L5.5321875,36.3331875 C5.14570313,33.3117187 7.87532813,30.5554687 9.37921875,30.2902969 C8.15315625,30.2902031 2.51498438,30.2902031 2.51498438,30.2902031 L2.51498438,30.2902031 Z M39.0100781,31.05675 C41.8583437,31.05675 44.1673125,33.3658125 44.1673125,36.2140312 C44.1673125,39.0622031 41.8582969,41.3712187 39.0100781,41.3712187 C36.1618594,41.3712187 33.8528906,39.0621562 33.8528906,36.2140312 C33.8528906,33.3657656 36.1618594,31.05675 39.0100781,31.05675 Z M36.6272812,36.2140781 C36.6272812,37.53 37.6941094,38.5967344 39.0100781,38.5967344 C40.3260469,38.5967344 41.3927812,37.5299531 41.3927812,36.2140781 C41.3927812,34.8980625 40.326,33.8313281 39.0100781,33.8313281 C37.6940625,33.8313281 36.6272812,34.8980625 36.6272812,36.2140781 Z M11.9789063,31.05675 C14.8271719,31.05675 17.1360938,33.3658125 17.1360938,36.2140312 C17.1360938,39.0622031 14.827125,41.3712187 11.9789063,41.3712187 C9.1306875,41.3712187 6.82167188,39.0621562 6.82167188,36.2140312 C6.82167188,33.3657656 9.1306875,31.05675 11.9789063,31.05675 Z M9.5960625,36.2140781 C9.5960625,37.53 10.6628438,38.5967344 11.9788125,38.5967344 C13.2947813,38.5967344 14.3615625,37.5299531 14.3615625,36.2140781 C14.3615625,34.8980625 13.2947813,33.8313281 11.9788125,33.8313281 C10.6628438,33.8313281 9.5960625,34.8980625 9.5960625,36.2140781 Z" id="形状" fill="#B1E2FF"></path>
                        </g>
                        <g id="car_left" transform="translate(0.000000, 209.000000)" fill-rule="nonzero">
                            <rect id="矩形" fill="#000000" opacity="0" transform="translate(24.000000, 24.000000) scale(-1, 1) translate(-24.000000, -24.000000) " x="0" y="0" width="48" height="48"></rect>
                            <path d="M16.3755937,36.3329063 L30.6477656,36.3329063 C30.6469219,36.2933438 30.6422344,36.253875 30.6422344,36.2125781 C30.6422344,35.9211563 30.8165156,34.6903125 30.9106875,34.3726406 C31.2683437,33.1624688 32.8794375,29.7496406 37.0506094,29.7496406 C41.2995937,29.7496406 42.8336719,33.1624219 43.191375,34.3726406 C43.2844687,34.6903594 43.4588906,35.9212031 43.4588906,36.2125781 C43.4588906,36.253875 43.4541562,36.2933438 43.4523281,36.3329063 L44.51625,36.3329063 C45.0527812,36.3329063 45.4877812,35.895 45.4877812,35.3537344 L45.4877812,30.3192656 C45.4877812,30.0702656 45.3901406,29.8436719 45.23925,29.6707969 L45.23925,22.3485 C45.23925,16.6845 41.5352344,13.7566406 41.3769375,13.6344844 C41.2065937,13.5030469 40.9996875,13.4325938 40.7864062,13.4325938 L32.9715937,13.4325938 C32.6837344,13.4325938 32.4285469,13.5613594 32.2506094,13.7624063 L32.2506094,29.8872188 C32.2506094,30.2825625 31.9949531,30.53925 31.6031719,30.53925 L13.0391719,30.53925 C16.157625,31.7454844 16.3739062,34.9362656 16.3757812,36.3329063 L16.3755937,36.3329063 Z M33.943125,21.1280625 L33.943125,15.392625 L40.4266875,15.392625 C41.0731406,15.9911719 42.8438906,17.9107969 43.2203906,21.1280625 L33.943125,21.1280625 L33.943125,21.1280625 Z M0.555609375,30.2902031 C0.555609375,30.299625 0.55284375,35.3540156 0.55284375,35.3540156 C0.55284375,35.895375 0.9868125,36.3331875 1.52334375,36.3331875 L3.5728125,36.3331875 C3.18632812,33.3117188 5.91595312,30.5554688 7.41984375,30.2902969 C6.19378125,30.2902031 0.555609375,30.2902031 0.555609375,30.2902031 L0.555609375,30.2902031 Z M37.0507031,31.05675 C39.8989687,31.05675 42.2079375,33.3658125 42.2079375,36.2140313 C42.2079375,39.0622031 39.8989219,41.3712188 37.0507031,41.3712188 C34.2024844,41.3712188 31.8935156,39.0621563 31.8935156,36.2140313 C31.8935156,33.3657656 34.2024844,31.05675 37.0507031,31.05675 Z M34.6679062,36.2140781 C34.6679062,37.53 35.7347344,38.5967344 37.0507031,38.5967344 C38.3666719,38.5967344 39.4334062,37.5299531 39.4334062,36.2140781 C39.4334062,34.8980625 38.366625,33.8313281 37.0507031,33.8313281 C35.7346875,33.8313281 34.6679062,34.8980625 34.6679062,36.2140781 Z M10.0195312,31.05675 C12.8677969,31.05675 15.1767187,33.3658125 15.1767187,36.2140313 C15.1767187,39.0622031 12.86775,41.3712188 10.0195312,41.3712188 C7.1713125,41.3712188 4.86229687,39.0621563 4.86229687,36.2140313 C4.86229687,33.3657656 7.1713125,31.05675 10.0195312,31.05675 Z M7.6366875,36.2140781 C7.6366875,37.53 8.70346875,38.5967344 10.0194375,38.5967344 C11.3354062,38.5967344 12.4021875,37.5299531 12.4021875,36.2140781 C12.4021875,34.8980625 11.3354062,33.8313281 10.0194375,33.8313281 C8.70346875,33.8313281 7.6366875,34.8980625 7.6366875,36.2140781 Z" id="形状" fill="#B1E2FF" transform="translate(23.020312, 27.401906) scale(-1, 1) translate(-23.020312, -27.401906) "></path>
                            <path d="M15.0580781,7.60734375 L15.0580781,29.233125 L47.4311719,29.233125 L47.4591094,7.60734375 C47.4591094,7.06607813 47.023125,6.62732813 46.4865469,6.62732813 L16.0285781,6.62732813 C15.4921875,6.62732813 15.0580781,7.066125 15.0580781,7.60734375 L15.0580781,7.60734375 Z" id="路径" fill="#B1E2FF" transform="translate(31.258594, 17.930227) scale(-1, 1) translate(-31.258594, -17.930227) "></path>
                        </g>
                        <polygon id="直线备份" fill="#FFFFFF" fill-rule="nonzero" opacity="0.149999991" points="69 174 69 292 61 292 61 174"></polygon>
                        <polygon id="直线" fill="#FFFFFF" fill-rule="nonzero" opacity="0.149999991" points="69 0 69 118 61 118 61 0"></polygon>
                    </g>
                </g>
            </g>
        </g>
    </g>
</svg>