<?xml version="1.0" encoding="UTF-8"?>
<svg width="238px" height="20px" viewBox="0 0 238 20" version="1.1" xmlns="http://www.w3.org/2000/svg" xmlns:xlink="http://www.w3.org/1999/xlink">
    <!-- Generator: Sketch 61.2 (89653) - https://sketch.com -->
    <title>jiankang_di</title>
    <desc>Created with Sketch.</desc>
    <g id="数据大屏（全）" stroke="none" stroke-width="1" fill="none" fill-rule="evenodd">
        <g id="智慧炼厂" transform="translate(-1943.000000, -695.000000)" fill="#404C66">
            <g id="编组-7" transform="translate(47.000000, 36.000000)">
                <path d="M1898,659 C1899.10457,659 1900,659.895431 1900,661 L1900,677 C1900,678.104569 1899.10457,679 1898,679 C1896.89543,679 1896,678.104569 1896,677 L1896,661 C1896,659.895431 1896.89543,659 1898,659 Z M1904,659 C1905.10457,659 1906,659.895431 1906,661 L1906,677 C1906,678.104569 1905.10457,679 1904,679 C1902.89543,679 1902,678.104569 1902,677 L1902,661 C1902,659.895431 1902.89543,659 1904,659 Z M1910,659 C1911.10457,659 1912,659.895431 1912,661 L1912,677 C1912,678.104569 1911.10457,679 1910,679 C1908.89543,679 1908,678.104569 1908,677 L1908,661 C1908,659.895431 1908.89543,659 1910,659 Z M1916,659 C1917.10457,659 1918,659.895431 1918,661 L1918,677 C1918,678.104569 1917.10457,679 1916,679 C1914.89543,679 1914,678.104569 1914,677 L1914,661 C1914,659.895431 1914.89543,659 1916,659 Z M1922,659 C1923.10457,659 1924,659.895431 1924,661 L1924,677 C1924,678.104569 1923.10457,679 1922,679 C1920.89543,679 1920,678.104569 1920,677 L1920,661 C1920,659.895431 1920.89543,659 1922,659 Z M1928,659 C1929.10457,659 1930,659.895431 1930,661 L1930,677 C1930,678.104569 1929.10457,679 1928,679 C1926.89543,679 1926,678.104569 1926,677 L1926,661 C1926,659.895431 1926.89543,659 1928,659 Z M1934,659 C1935.10457,659 1936,659.895431 1936,661 L1936,677 C1936,678.104569 1935.10457,679 1934,679 C1932.89543,679 1932,678.104569 1932,677 L1932,661 C1932,659.895431 1932.89543,659 1934,659 Z M1940,659 C1941.10457,659 1942,659.895431 1942,661 L1942,677 C1942,678.104569 1941.10457,679 1940,679 C1938.89543,679 1938,678.104569 1938,677 L1938,661 C1938,659.895431 1938.89543,659 1940,659 Z M1946,659 C1947.10457,659 1948,659.895431 1948,661 L1948,677 C1948,678.104569 1947.10457,679 1946,679 C1944.89543,679 1944,678.104569 1944,677 L1944,661 C1944,659.895431 1944.89543,659 1946,659 Z M1952,659 C1953.10457,659 1954,659.895431 1954,661 L1954,677 C1954,678.104569 1953.10457,679 1952,679 C1950.89543,679 1950,678.104569 1950,677 L1950,661 C1950,659.895431 1950.89543,659 1952,659 Z M1958,659 C1959.10457,659 1960,659.895431 1960,661 L1960,677 C1960,678.104569 1959.10457,679 1958,679 C1956.89543,679 1956,678.104569 1956,677 L1956,661 C1956,659.895431 1956.89543,659 1958,659 Z M1964,659 C1965.10457,659 1966,659.895431 1966,661 L1966,677 C1966,678.104569 1965.10457,679 1964,679 C1962.89543,679 1962,678.104569 1962,677 L1962,661 C1962,659.895431 1962.89543,659 1964,659 Z M1970,659 C1971.10457,659 1972,659.895431 1972,661 L1972,677 C1972,678.104569 1971.10457,679 1970,679 C1968.89543,679 1968,678.104569 1968,677 L1968,661 C1968,659.895431 1968.89543,659 1970,659 Z M1976,659 C1977.10457,659 1978,659.895431 1978,661 L1978,677 C1978,678.104569 1977.10457,679 1976,679 C1974.89543,679 1974,678.104569 1974,677 L1974,661 C1974,659.895431 1974.89543,659 1976,659 Z M1982,659 C1983.10457,659 1984,659.895431 1984,661 L1984,677 C1984,678.104569 1983.10457,679 1982,679 C1980.89543,679 1980,678.104569 1980,677 L1980,661 C1980,659.895431 1980.89543,659 1982,659 Z M1988,659 C1989.10457,659 1990,659.895431 1990,661 L1990,677 C1990,678.104569 1989.10457,679 1988,679 C1986.89543,679 1986,678.104569 1986,677 L1986,661 C1986,659.895431 1986.89543,659 1988,659 Z M1994,659 C1995.10457,659 1996,659.895431 1996,661 L1996,677 C1996,678.104569 1995.10457,679 1994,679 C1992.89543,679 1992,678.104569 1992,677 L1992,661 C1992,659.895431 1992.89543,659 1994,659 Z M2000,659 C2001.10457,659 2002,659.895431 2002,661 L2002,677 C2002,678.104569 2001.10457,679 2000,679 C1998.89543,679 1998,678.104569 1998,677 L1998,661 C1998,659.895431 1998.89543,659 2000,659 Z M2006,659 C2007.10457,659 2008,659.895431 2008,661 L2008,677 C2008,678.104569 2007.10457,679 2006,679 C2004.89543,679 2004,678.104569 2004,677 L2004,661 C2004,659.895431 2004.89543,659 2006,659 Z M2012,659 C2013.10457,659 2014,659.895431 2014,661 L2014,677 C2014,678.104569 2013.10457,679 2012,679 C2010.89543,679 2010,678.104569 2010,677 L2010,661 C2010,659.895431 2010.89543,659 2012,659 Z M2018,659 C2019.10457,659 2020,659.895431 2020,661 L2020,677 C2020,678.104569 2019.10457,679 2018,679 C2016.89543,679 2016,678.104569 2016,677 L2016,661 C2016,659.895431 2016.89543,659 2018,659 Z M2024,659 C2025.10457,659 2026,659.895431 2026,661 L2026,677 C2026,678.104569 2025.10457,679 2024,679 C2022.89543,679 2022,678.104569 2022,677 L2022,661 C2022,659.895431 2022.89543,659 2024,659 Z M2030,659 C2031.10457,659 2032,659.895431 2032,661 L2032,677 C2032,678.104569 2031.10457,679 2030,679 C2028.89543,679 2028,678.104569 2028,677 L2028,661 C2028,659.895431 2028.89543,659 2030,659 Z M2036,659 C2037.10457,659 2038,659.895431 2038,661 L2038,677 C2038,678.104569 2037.10457,679 2036,679 C2034.89543,679 2034,678.104569 2034,677 L2034,661 C2034,659.895431 2034.89543,659 2036,659 Z M2042,659 C2043.10457,659 2044,659.895431 2044,661 L2044,677 C2044,678.104569 2043.10457,679 2042,679 C2040.89543,679 2040,678.104569 2040,677 L2040,661 C2040,659.895431 2040.89543,659 2042,659 Z M2048,659 C2049.10457,659 2050,659.895431 2050,661 L2050,677 C2050,678.104569 2049.10457,679 2048,679 C2046.89543,679 2046,678.104569 2046,677 L2046,661 C2046,659.895431 2046.89543,659 2048,659 Z M2054,659 C2055.10457,659 2056,659.895431 2056,661 L2056,677 C2056,678.104569 2055.10457,679 2054,679 C2052.89543,679 2052,678.104569 2052,677 L2052,661 C2052,659.895431 2052.89543,659 2054,659 Z M2060,659 C2061.10457,659 2062,659.895431 2062,661 L2062,677 C2062,678.104569 2061.10457,679 2060,679 C2058.89543,679 2058,678.104569 2058,677 L2058,661 C2058,659.895431 2058.89543,659 2060,659 Z M2066,659 C2067.10457,659 2068,659.895431 2068,661 L2068,677 C2068,678.104569 2067.10457,679 2066,679 C2064.89543,679 2064,678.104569 2064,677 L2064,661 C2064,659.895431 2064.89543,659 2066,659 Z M2072,659 C2073.10457,659 2074,659.895431 2074,661 L2074,677 C2074,678.104569 2073.10457,679 2072,679 C2070.89543,679 2070,678.104569 2070,677 L2070,661 C2070,659.895431 2070.89543,659 2072,659 Z M2078,659 C2079.10457,659 2080,659.895431 2080,661 L2080,677 C2080,678.104569 2079.10457,679 2078,679 C2076.89543,679 2076,678.104569 2076,677 L2076,661 C2076,659.895431 2076.89543,659 2078,659 Z M2084,659 C2085.10457,659 2086,659.895431 2086,661 L2086,677 C2086,678.104569 2085.10457,679 2084,679 C2082.89543,679 2082,678.104569 2082,677 L2082,661 C2082,659.895431 2082.89543,659 2084,659 Z M2090,659 C2091.10457,659 2092,659.895431 2092,661 L2092,677 C2092,678.104569 2091.10457,679 2090,679 C2088.89543,679 2088,678.104569 2088,677 L2088,661 C2088,659.895431 2088.89543,659 2090,659 Z M2096,659 C2097.10457,659 2098,659.895431 2098,661 L2098,677 C2098,678.104569 2097.10457,679 2096,679 C2094.89543,679 2094,678.104569 2094,677 L2094,661 C2094,659.895431 2094.89543,659 2096,659 Z M2102,659 C2103.10457,659 2104,659.895431 2104,661 L2104,677 C2104,678.104569 2103.10457,679 2102,679 C2100.89543,679 2100,678.104569 2100,677 L2100,661 C2100,659.895431 2100.89543,659 2102,659 Z M2108,659 C2109.10457,659 2110,659.895431 2110,661 L2110,677 C2110,678.104569 2109.10457,679 2108,679 C2106.89543,679 2106,678.104569 2106,677 L2106,661 C2106,659.895431 2106.89543,659 2108,659 Z M2114,659 C2115.10457,659 2116,659.895431 2116,661 L2116,677 C2116,678.104569 2115.10457,679 2114,679 C2112.89543,679 2112,678.104569 2112,677 L2112,661 C2112,659.895431 2112.89543,659 2114,659 Z M2120,659 C2121.10457,659 2122,659.895431 2122,661 L2122,677 C2122,678.104569 2121.10457,679 2120,679 C2118.89543,679 2118,678.104569 2118,677 L2118,661 C2118,659.895431 2118.89543,659 2120,659 Z M2126,659 C2127.10457,659 2128,659.895431 2128,661 L2128,677 C2128,678.104569 2127.10457,679 2126,679 C2124.89543,679 2124,678.104569 2124,677 L2124,661 C2124,659.895431 2124.89543,659 2126,659 Z M2132,659 C2133.10457,659 2134,659.895431 2134,661 L2134,677 C2134,678.104569 2133.10457,679 2132,679 C2130.89543,679 2130,678.104569 2130,677 L2130,661 C2130,659.895431 2130.89543,659 2132,659 Z" id="jiankang_di"></path>
            </g>
        </g>
    </g>
</svg>