<?xml version="1.0" encoding="UTF-8"?>
<svg width="130px" height="232px" viewBox="0 0 130 232" version="1.1" xmlns="http://www.w3.org/2000/svg" xmlns:xlink="http://www.w3.org/1999/xlink">
    <!-- Generator: Sketch 61.2 (89653) - https://sketch.com -->
    <title>kuang_red</title>
    <desc>Created with Sketch.</desc>
    <g id="数据大屏（全）" stroke="none" stroke-width="1" fill="none" fill-rule="evenodd">
        <g id="kuang_red">
            <path d="M11.9593596,232 L0,224.882353 L0,111.764706 L11.9593596,103.223529 L11.9593596,94.6823529 L0,86.8529412 L0,7.11764706 L11.9593596,0 L118.04064,0 L130,7.11764706 L130,86.8529412 L118.04064,94.6823529 L118.04064,103.223529 L130,111.764706 L130,224.882353 L118.04064,232 L11.9593596,232 Z" id="蒙版" fill="#121124"></path>
            <path d="M118.04064,0 L130,7.11764706 L130,86.8529412 L118.04064,94.6823529 L118.04064,103.223529 L130,111.764706 L130,224.882353 L118.04064,232 L11.9593596,232 L0,224.882353 L0,111.764706 L11.9593596,103.223529 L11.9593596,94.6823529 L0,86.8529412 L0,7.11764706 L11.9593596,0 L118.04064,0 Z M117.491,2 L12.508,2 L2,8.254 L2,85.772 L13.9593596,93.6012162 L13.9593596,104.252851 L2,112.794 L2,223.745 L12.51,230 L117.489,230 L128,223.744 L128,112.794 L116.04064,104.252851 L116.04064,93.6012162 L128,85.771 L128,8.255 L117.491,2 Z" id="蒙版" fill="#C33548" fill-rule="nonzero"></path>
        </g>
    </g>
</svg>