<?xml version="1.0" encoding="UTF-8"?>
<svg width="130px" height="232px" viewBox="0 0 130 232" version="1.1" xmlns="http://www.w3.org/2000/svg" xmlns:xlink="http://www.w3.org/1999/xlink">
    <!-- Generator: Sketch 61.2 (89653) - https://sketch.com -->
    <title>编组 16</title>
    <desc>Created with Sketch.</desc>
    <g id="数据大屏（全）" stroke="none" stroke-width="1" fill="none" fill-rule="evenodd">
        <g id="编组-16">
            <polygon id="路径-37" fill="#050B1D" points="130 86 117 94 117 104 130 113"></polygon>
            <polygon id="路径-37" fill="#050B1D" transform="translate(6.500000, 99.500000) scale(-1, 1) translate(-6.500000, -99.500000) " points="13 86 -2.83245649e-14 94 -2.83245649e-14 104 13 113"></polygon>
            <path d="M118.04064,0 L130,7.11764706 L130,86.8529412 L118.04064,94.6823529 L118.04064,103.223529 L130,111.764706 L130,224.882353 L118.04064,232 L11.9593596,232 L0,224.882353 L0,111.764706 L11.9593596,103.223529 L11.9593596,94.6823529 L0,86.8529412 L0,7.11764706 L11.9593596,0 L118.04064,0 Z M117.492,2 L12.509,2 L2,8.255 L2,85.771 L13.9593596,93.6012162 L13.9593596,104.252851 L2,112.794 L2,223.744 L12.511,230 L117.49,230 L128,223.745 L128,112.794 L116.04064,104.252851 L116.04064,93.6012162 L128,85.772 L128,8.254 L117.492,2 Z" id="蒙版" fill="#6F99FF" fill-rule="nonzero"></path>
        </g>
    </g>
</svg>