<?xml version="1.0" encoding="UTF-8"?>
<svg width="49px" height="14px" viewBox="0 0 49 14" version="1.1" xmlns="http://www.w3.org/2000/svg" xmlns:xlink="http://www.w3.org/1999/xlink">
    <!-- Generator: Sketch 61.2 (89653) - https://sketch.com -->
    <title>jiantou8-b</title>
    <desc>Created with Sketch.</desc>
    <g id="数据大屏（全）" stroke="none" stroke-width="1" fill="none" fill-rule="evenodd" opacity="0.300000012">
        <g id="编组-4备份" transform="translate(-48.000000, -295.000000)" fill="#CFDDFF" fill-rule="nonzero">
            <path d="M83.0179026,294.964309 L97,302 L82.9821885,308.964263 L83.0179026,294.964309 Z M78.0024534,300.951534 L80.0024469,300.956636 L79.9973514,302.956629 L77.9973514,302.951534 L78.0024534,300.951534 Z M72.0024729,300.936228 L74.0024664,300.94133 L73.9973709,302.941323 L71.9973709,302.936228 L72.0024729,300.936228 Z M66.0024924,300.920921 L68.0024859,300.926023 L67.9973904,302.926017 L65.9973904,302.920921 L66.0024924,300.920921 Z M60.002512,300.905615 L62.0025055,300.910717 L61.9974099,302.910711 L59.9974099,302.905615 L60.002512,300.905615 Z M54.0025315,300.890309 L56.002525,300.895411 L55.9974295,302.895405 L53.9974295,302.890309 L54.0025315,300.890309 Z M48.002551,300.875003 L50.0025445,300.880105 L49.997449,302.880099 L47.997449,302.875003 L48.002551,300.875003 Z" id="jiantou8-b" transform="translate(72.498724, 301.964286) scale(-1, 1) translate(-72.498724, -301.964286) "></path>
        </g>
    </g>
</svg>