<?xml version="1.0" encoding="UTF-8"?>
<svg width="91px" height="73px" viewBox="0 0 91 73" version="1.1" xmlns="http://www.w3.org/2000/svg" xmlns:xlink="http://www.w3.org/1999/xlink">
    <!-- Generator: Sketch 61.2 (89653) - https://sketch.com -->
    <title>jiantou5-r</title>
    <desc>Created with Sketch.</desc>
    <defs>
        <linearGradient x1="100%" y1="50%" x2="0%" y2="50%" id="linearGradient-1">
            <stop stop-color="#CFDDFF" stop-opacity="0.9" offset="0%"></stop>
            <stop stop-color="#FF613C" offset="100%"></stop>
        </linearGradient>
    </defs>
    <g id="数据大屏（全）" stroke="none" stroke-width="1" fill="none" fill-rule="evenodd" opacity="0.5">
        <g id="编组-4备份-4" transform="translate(-778.000000, -236.000000)" fill="url(#linearGradient-1)" fill-rule="nonzero">
            <path d="M868.997937,308.468774 L868.999478,308.732746 L868.999478,308.732746 L869,308.996836 L867,308.996928 L866.999493,308.74056 L866.999493,308.74056 L866.997998,308.48431 L868.997937,308.468774 Z M868.675573,302.365391 L868.767219,303.375648 L868.767219,303.375648 L868.843742,304.38846 L866.848349,304.524134 L866.774096,303.541352 L866.774096,303.541352 L866.68517,302.561083 L868.675573,302.365391 Z M867.800577,296.314663 L867.983986,297.312635 L867.983986,297.312635 L868.152345,298.314156 L866.177556,298.630712 L866.014239,297.659186 L866.014239,297.659186 L865.836327,296.69112 L867.800577,296.314663 Z M866.375554,290.369947 L866.649781,291.347092 L866.649781,291.347092 L866.9092,292.328842 L864.971723,292.82501 L864.720106,291.872786 L864.720106,291.872786 L864.454128,290.925033 L866.375554,290.369947 Z M864.411891,284.584278 L864.774648,285.532102 L864.774648,285.532102 L865.123,286.485627 L863.239255,287.157567 L862.901377,286.232714 L862.901377,286.232714 L862.549526,285.313386 L864.411891,284.584278 Z M861.929132,279.009475 L862.377266,279.920476 L862.377266,279.920476 L862.811534,280.8383 L860.997226,281.679896 L860.575978,280.789592 L860.575978,280.789592 L860.141277,279.905897 L861.929132,279.009475 Z M858.947589,273.684544 L859.476665,274.550477 L859.476665,274.550477 L859.992571,275.424343 L858.262656,276.428034 L857.762158,275.580265 L857.762158,275.580265 L857.248878,274.740185 L858.947589,273.684544 Z M855.558699,268.738651 L856.163514,269.554721 L856.163514,269.554721 L856.755919,270.379822 L855.122525,271.533956 L854.547748,270.733406 L854.547748,270.733406 L853.960926,269.941614 L855.558699,268.738651 Z M851.655613,264.017928 L852.331337,264.774785 L852.331337,264.774785 L852.99558,265.54172 L851.47396,266.83967 L850.829436,266.095501 L850.829436,266.095501 L850.173767,265.361109 L851.655613,264.017928 Z M847.343806,259.674674 L848.086248,260.367936 L848.086248,260.367936 L848.818163,261.072311 L847.420504,262.502887 L846.710304,261.81941 L846.710304,261.81941 L845.989891,261.146719 L847.343806,259.674674 Z M842.662209,255.745464 L843.464117,256.368318 L843.464117,256.368318 L844.256552,257.003212 L842.99429,258.554565 L842.225402,257.938537 L842.225402,257.938537 L841.447327,257.334194 L842.662209,255.745464 Z M837.652489,252.263243 L838.507355,252.810621 L838.507355,252.810621 L839.35384,253.370872 L838.23742,255.030271 L837.416167,254.486721 L837.416167,254.486721 L836.586792,253.955664 L837.652489,252.263243 Z M832.392385,249.274057 L833.294147,249.74251 L833.294147,249.74251 L834.188619,250.224589 L833.226394,251.977907 L832.358691,251.510255 L832.358691,251.510255 L831.483924,251.055826 L832.392385,249.274057 Z M792,236 L792,242 L793,242 L793,244 L792,244 L792,250 L778,243 L792,236 Z M826.813787,246.745428 L827.754647,247.129117 L827.754647,247.129117 L828.689345,247.527034 L827.891935,249.361193 L826.98531,248.975227 L826.98531,248.975227 L826.072716,248.603064 L826.813787,246.745428 Z M821.038677,244.743913 L822.011159,245.03972 L822.011159,245.03972 L822.978588,245.350225 L822.352845,247.249816 L821.414522,246.948653 L821.414522,246.948653 L820.471298,246.661746 L821.038677,244.743913 Z M815.134018,243.28701 L816.127532,243.492366 L816.127532,243.492366 L817.11708,243.712662 L816.667623,245.661505 L815.707791,245.447824 L815.707791,245.447824 L814.744103,245.248633 L815.134018,243.28701 Z M809.096457,242.371445 L810.105876,242.485454 L810.105876,242.485454 L811.112341,242.614581 L810.842821,244.596338 L809.86637,244.471061 L809.86637,244.471061 L808.887028,244.36045 L809.096457,242.371445 Z M803.017615,242.007573 L804.033125,242.030268 L804.033125,242.030268 L805.046627,242.068054 L804.957188,244.066053 L803.973506,244.029379 L803.973506,244.029379 L802.987832,244.007352 L803.017615,242.007573 Z M799,242 L799,244 L797,244 L797,242 L799,242 Z" id="jiantou5-r" transform="translate(823.500000, 272.498464) scale(1, -1) translate(-823.500000, -272.498464) "></path>
        </g>
    </g>
</svg>