<?xml version="1.0" encoding="UTF-8"?>
<svg width="91px" height="73px" viewBox="0 0 91 73" version="1.1" xmlns="http://www.w3.org/2000/svg" xmlns:xlink="http://www.w3.org/1999/xlink">
    <!-- Generator: Sketch 61.2 (89653) - https://sketch.com -->
    <title>jiantou5-b</title>
    <desc>Created with Sketch.</desc>
    <g id="数据大屏（全）" stroke="none" stroke-width="1" fill="none" fill-rule="evenodd" opacity="0.300000012">
        <g id="编组-4备份" transform="translate(-479.000000, -236.000000)" fill="#CFDDFF" fill-rule="nonzero">
            <path d="M569.997937,308.468774 L569.999478,308.732746 L569.999478,308.732746 L570,308.996836 L568,308.996928 L567.999493,308.74056 L567.999493,308.74056 L567.997998,308.48431 L569.997937,308.468774 Z M569.675573,302.365391 L569.767219,303.375648 L569.767219,303.375648 L569.843742,304.38846 L567.848349,304.524134 L567.774096,303.541352 L567.774096,303.541352 L567.68517,302.561083 L569.675573,302.365391 Z M568.800577,296.314663 L568.983986,297.312635 L568.983986,297.312635 L569.152345,298.314156 L567.177556,298.630712 L567.014239,297.659186 L567.014239,297.659186 L566.836327,296.69112 L568.800577,296.314663 Z M567.375554,290.369947 L567.649781,291.347092 L567.649781,291.347092 L567.9092,292.328842 L565.971723,292.82501 L565.720106,291.872786 L565.720106,291.872786 L565.454128,290.925033 L567.375554,290.369947 Z M565.411891,284.584278 L565.774648,285.532102 L565.774648,285.532102 L566.123,286.485627 L564.239255,287.157567 L563.901377,286.232714 L563.901377,286.232714 L563.549526,285.313386 L565.411891,284.584278 Z M562.929132,279.009475 L563.377266,279.920476 L563.377266,279.920476 L563.811534,280.8383 L561.997226,281.679896 L561.575978,280.789592 L561.575978,280.789592 L561.141277,279.905897 L562.929132,279.009475 Z M559.947589,273.684544 L560.476665,274.550477 L560.476665,274.550477 L560.992571,275.424343 L559.262656,276.428034 L558.762158,275.580265 L558.762158,275.580265 L558.248878,274.740185 L559.947589,273.684544 Z M556.558699,268.738651 L557.163514,269.554721 L557.163514,269.554721 L557.755919,270.379822 L556.122525,271.533956 L555.547748,270.733406 L555.547748,270.733406 L554.960926,269.941614 L556.558699,268.738651 Z M552.655613,264.017928 L553.331337,264.774785 L553.331337,264.774785 L553.99558,265.54172 L552.47396,266.83967 L551.829436,266.095501 L551.829436,266.095501 L551.173767,265.361109 L552.655613,264.017928 Z M548.343806,259.674674 L549.086248,260.367936 L549.086248,260.367936 L549.818163,261.072311 L548.420504,262.502887 L547.710304,261.81941 L547.710304,261.81941 L546.989891,261.146719 L548.343806,259.674674 Z M543.662209,255.745464 L544.464117,256.368318 L544.464117,256.368318 L545.256552,257.003212 L543.99429,258.554565 L543.225402,257.938537 L543.225402,257.938537 L542.447327,257.334194 L543.662209,255.745464 Z M538.652489,252.263243 L539.507355,252.810621 L539.507355,252.810621 L540.35384,253.370872 L539.23742,255.030271 L538.416167,254.486721 L538.416167,254.486721 L537.586792,253.955664 L538.652489,252.263243 Z M533.392385,249.274057 L534.294147,249.74251 L534.294147,249.74251 L535.188619,250.224589 L534.226394,251.977907 L533.358691,251.510255 L533.358691,251.510255 L532.483924,251.055826 L533.392385,249.274057 Z M493,236 L493,242 L494,242 L494,244 L493,244 L493,250 L479,243 L493,236 Z M527.813787,246.745428 L528.754647,247.129117 L528.754647,247.129117 L529.689345,247.527034 L528.891935,249.361193 L527.98531,248.975227 L527.98531,248.975227 L527.072716,248.603064 L527.813787,246.745428 Z M522.038677,244.743913 L523.011159,245.03972 L523.011159,245.03972 L523.978588,245.350225 L523.352845,247.249816 L522.414522,246.948653 L522.414522,246.948653 L521.471298,246.661746 L522.038677,244.743913 Z M516.134018,243.28701 L517.127532,243.492366 L517.127532,243.492366 L518.11708,243.712662 L517.667623,245.661505 L516.707791,245.447824 L516.707791,245.447824 L515.744103,245.248633 L516.134018,243.28701 Z M510.096457,242.371445 L511.105876,242.485454 L511.105876,242.485454 L512.112341,242.614581 L511.842821,244.596338 L510.86637,244.471061 L510.86637,244.471061 L509.887028,244.36045 L510.096457,242.371445 Z M504.017615,242.007573 L505.033125,242.030268 L505.033125,242.030268 L506.046627,242.068054 L505.957188,244.066053 L504.973506,244.029379 L504.973506,244.029379 L503.987832,244.007352 L504.017615,242.007573 Z M500,242 L500,244 L498,244 L498,242 L500,242 Z" id="jiantou5-b" transform="translate(524.500000, 272.498464) scale(1, -1) translate(-524.500000, -272.498464) "></path>
        </g>
    </g>
</svg>