<?xml version="1.0" encoding="UTF-8"?>
<svg width="96px" height="66px" viewBox="0 0 96 66" version="1.1" xmlns="http://www.w3.org/2000/svg" xmlns:xlink="http://www.w3.org/1999/xlink">
    <!-- Generator: Sketch 61.2 (89653) - https://sketch.com -->
    <title>jiantou4-r</title>
    <desc>Created with Sketch.</desc>
    <defs>
        <linearGradient x1="100%" y1="50%" x2="0%" y2="50%" id="linearGradient-1">
            <stop stop-color="#FF613C" offset="0%"></stop>
            <stop stop-color="#CFDDFF" stop-opacity="0.9" offset="100%"></stop>
        </linearGradient>
    </defs>
    <g id="数据大屏（全）" stroke="none" stroke-width="1" fill="none" fill-rule="evenodd" opacity="0.5">
        <g id="编组-4备份-4" transform="translate(-778.000000, -128.000000)" fill="url(#linearGradient-1)" fill-rule="nonzero">
            <path d="M873.591063,179.38015 L868,194 L859.658758,180.75524 L873.591063,179.38015 Z M866.208976,174.950375 L866.494049,175.924882 L866.494049,175.924882 L866.764116,176.904198 L864.832021,177.420926 L864.5702,176.471514 L864.5702,176.471514 L864.293833,175.526767 L866.208976,174.950375 Z M864.178314,169.191075 L864.552934,170.134889 L864.552934,170.134889 L864.912983,171.084648 L863.037415,171.779088 L862.688355,170.858313 L862.688355,170.858313 L862.325164,169.943295 L864.178314,169.191075 Z M861.6212,163.64651 L862.081988,164.551668 L862.081988,164.551668 L862.528784,165.463929 L860.725895,166.329718 L860.292691,165.445209 L860.292691,165.445209 L859.845915,164.567577 L861.6212,163.64651 Z M858.563131,158.365907 L859.105597,159.224476 L859.105597,159.224476 L859.634799,160.091297 L857.919809,161.120282 L857.406641,160.279723 L857.406641,160.279723 L856.880605,159.447158 L858.563131,158.365907 Z M855.089178,153.464727 L855.707399,154.270706 L855.707399,154.270706 L856.31318,155.086053 L854.698682,156.266475 L854.11119,155.475744 L854.11119,155.475744 L853.511629,154.694092 L855.089178,153.464727 Z M851.105456,148.81271 L851.794842,149.557663 L851.794842,149.557663 L852.472751,150.313061 L850.974085,151.637449 L850.316599,150.904809 L850.316599,150.904809 L849.647981,150.182296 L851.105456,148.81271 Z M846.716549,144.553432 L847.47132,145.231587 L847.47132,145.231587 L848.215647,145.921207 L846.845207,147.377879 L846.123302,146.709033 L846.123302,146.709033 L845.391269,146.051308 L846.716549,144.553432 Z M841.957643,140.718796 L842.771829,141.324739 L842.771829,141.324739 L843.576652,141.943094 L842.346038,143.51967 L841.565507,142.919978 L841.565507,142.919978 L840.775901,142.332328 L841.957643,140.718796 Z M836.869627,137.341774 L837.737049,137.870523 L837.737049,137.870523 L838.596224,138.412551 L837.516119,140.095814 L836.682967,139.570203 L836.682967,139.570203 L835.841826,139.057474 L836.869627,137.341774 Z M831.534863,134.470636 L832.447536,134.917615 L832.447536,134.917615 L833.353101,135.378599 L832.432046,137.153889 L831.554019,136.706924 L831.554019,136.706924 L830.66911,136.273542 L831.534863,134.470636 Z M825.899442,132.081129 L826.849952,132.441187 L826.849952,132.441187 L827.794513,132.815838 L827.042732,134.669167 L826.126991,134.305946 L826.126991,134.305946 L825.205488,133.956876 L825.899442,132.081129 Z M820.081143,130.231966 L821.060934,130.501923 L821.060934,130.501923 L822.035913,130.786899 L821.45994,132.702168 L820.514735,132.425894 L820.514735,132.425894 L819.564863,132.164181 L820.081143,130.231966 Z M814.127409,128.934209 L815.12756,129.111999 L815.12756,129.111999 L816.123997,129.305057 L815.728415,131.265545 L814.762309,131.078364 L814.762309,131.078364 L813.792588,130.905983 L814.127409,128.934209 Z M808.073597,128.192158 L809.086232,128.276951 L809.086232,128.276951 L810.09618,128.377111 L809.88356,130.365777 L808.904078,130.268638 L808.904078,130.268638 L807.921961,130.186401 L808.073597,128.192158 Z M803,128 L803.507313,128.00191 L803.507313,128.00191 L804.014174,128.007636 L803.984041,130.007409 L803.492246,130.001853 L803.492246,130.001853 L803,130 L802,130 L802,128 L803,128 Z M780,128 L780,130 L778,130 L778,128 L780,128 Z M786,128 L786,130 L784,130 L784,128 L786,128 Z M792,128 L792,130 L790,130 L790,128 L792,128 Z M798,128 L798,130 L796,130 L796,128 L798,128 Z" id="jiantou4-r"></path>
        </g>
    </g>
</svg>