<?xml version="1.0" encoding="UTF-8"?>
<svg width="96px" height="66px" viewBox="0 0 96 66" version="1.1" xmlns="http://www.w3.org/2000/svg" xmlns:xlink="http://www.w3.org/1999/xlink">
    <!-- Generator: Sketch 61.2 (89653) - https://sketch.com -->
    <title>jiantou4-b</title>
    <desc>Created with Sketch.</desc>
    <g id="数据大屏（全）" stroke="none" stroke-width="1" fill="none" fill-rule="evenodd" opacity="0.300000012">
        <g id="编组-4备份" transform="translate(-479.000000, -128.000000)" fill="#CFDDFF" fill-rule="nonzero">
            <path d="M574.591063,179.38015 L569,194 L560.658758,180.75524 L574.591063,179.38015 Z M567.208976,174.950375 L567.494049,175.924882 L567.494049,175.924882 L567.764116,176.904198 L565.832021,177.420926 L565.5702,176.471514 L565.5702,176.471514 L565.293833,175.526767 L567.208976,174.950375 Z M565.178314,169.191075 L565.552934,170.134889 L565.552934,170.134889 L565.912983,171.084648 L564.037415,171.779088 L563.688355,170.858313 L563.688355,170.858313 L563.325164,169.943295 L565.178314,169.191075 Z M562.6212,163.64651 L563.081988,164.551668 L563.081988,164.551668 L563.528784,165.463929 L561.725895,166.329718 L561.292691,165.445209 L561.292691,165.445209 L560.845915,164.567577 L562.6212,163.64651 Z M559.563131,158.365907 L560.105597,159.224476 L560.105597,159.224476 L560.634799,160.091297 L558.919809,161.120282 L558.406641,160.279723 L558.406641,160.279723 L557.880605,159.447158 L559.563131,158.365907 Z M556.089178,153.464727 L556.707399,154.270706 L556.707399,154.270706 L557.31318,155.086053 L555.698682,156.266475 L555.11119,155.475744 L555.11119,155.475744 L554.511629,154.694092 L556.089178,153.464727 Z M552.105456,148.81271 L552.794842,149.557663 L552.794842,149.557663 L553.472751,150.313061 L551.974085,151.637449 L551.316599,150.904809 L551.316599,150.904809 L550.647981,150.182296 L552.105456,148.81271 Z M547.716549,144.553432 L548.47132,145.231587 L548.47132,145.231587 L549.215647,145.921207 L547.845207,147.377879 L547.123302,146.709033 L547.123302,146.709033 L546.391269,146.051308 L547.716549,144.553432 Z M542.957643,140.718796 L543.771829,141.324739 L543.771829,141.324739 L544.576652,141.943094 L543.346038,143.51967 L542.565507,142.919978 L542.565507,142.919978 L541.775901,142.332328 L542.957643,140.718796 Z M537.869627,137.341774 L538.737049,137.870523 L538.737049,137.870523 L539.596224,138.412551 L538.516119,140.095814 L537.682967,139.570203 L537.682967,139.570203 L536.841826,139.057474 L537.869627,137.341774 Z M532.534863,134.470636 L533.447536,134.917615 L533.447536,134.917615 L534.353101,135.378599 L533.432046,137.153889 L532.554019,136.706924 L532.554019,136.706924 L531.66911,136.273542 L532.534863,134.470636 Z M526.899442,132.081129 L527.849952,132.441187 L527.849952,132.441187 L528.794513,132.815838 L528.042732,134.669167 L527.126991,134.305946 L527.126991,134.305946 L526.205488,133.956876 L526.899442,132.081129 Z M521.081143,130.231966 L522.060934,130.501923 L522.060934,130.501923 L523.035913,130.786899 L522.45994,132.702168 L521.514735,132.425894 L521.514735,132.425894 L520.564863,132.164181 L521.081143,130.231966 Z M515.127409,128.934209 L516.12756,129.111999 L516.12756,129.111999 L517.123997,129.305057 L516.728415,131.265545 L515.762309,131.078364 L515.762309,131.078364 L514.792588,130.905983 L515.127409,128.934209 Z M509.073597,128.192158 L510.086232,128.276951 L510.086232,128.276951 L511.09618,128.377111 L510.88356,130.365777 L509.904078,130.268638 L509.904078,130.268638 L508.921961,130.186401 L509.073597,128.192158 Z M504,128 L504.507313,128.00191 L504.507313,128.00191 L505.014174,128.007636 L504.984041,130.007409 L504.492246,130.001853 L504.492246,130.001853 L504,130 L503,130 L503,128 L504,128 Z M481,128 L481,130 L479,130 L479,128 L481,128 Z M487,128 L487,130 L485,130 L485,128 L487,128 Z M493,128 L493,130 L491,130 L491,128 L493,128 Z M499,128 L499,130 L497,130 L497,128 L499,128 Z" id="jiantou4-b"></path>
        </g>
    </g>
</svg>