<?xml version="1.0" encoding="UTF-8"?>
<svg width="57px" height="15px" viewBox="0 0 57 15" version="1.1" xmlns="http://www.w3.org/2000/svg" xmlns:xlink="http://www.w3.org/1999/xlink">
    <!-- Generator: Sketch 61.2 (89653) - https://sketch.com -->
    <title>jiantou2-b</title>
    <desc>Created with Sketch.</desc>
    <g id="数据大屏（全）" stroke="none" stroke-width="1" fill="none" fill-rule="evenodd" opacity="0.300000012">
        <g id="编组-4备份" transform="translate(-186.000000, -121.000000)" fill="#CFDDFF" fill-rule="nonzero">
            <path d="M229.127212,121.751156 L243,129 L228.877252,135.748924 L228.984,129.749 L228.975451,129.749721 L229.011159,127.75004 L229.02,127.75 L229.127212,121.751156 Z M223.012116,127.642914 L225.011797,127.678623 L224.976088,129.678304 L222.976407,129.642595 L223.012116,127.642914 Z M217.013072,127.535788 L219.012753,127.571497 L218.977045,129.571178 L216.977364,129.535469 L217.013072,127.535788 Z M211.014029,127.428663 L213.01371,127.464371 L212.978001,129.464052 L210.97832,129.428344 L211.014029,127.428663 Z M205.014985,127.321537 L207.014666,127.357245 L206.978958,129.356927 L204.979276,129.321218 L205.014985,127.321537 Z M199.015941,127.214411 L201.015623,127.25012 L200.979914,129.249801 L198.980233,129.214092 L199.015941,127.214411 Z M193.016898,127.107285 L195.016579,127.142994 L194.98087,129.142675 L192.981189,129.106966 L193.016898,127.107285 Z M187.017854,127.000159 L189.017535,127.035868 L188.981827,129.035549 L186.982146,128.999841 L187.017854,127.000159 Z" id="jiantou2-b"></path>
        </g>
    </g>
</svg>