<?xml version="1.0" encoding="UTF-8"?>
<svg width="17px" height="15px" viewBox="0 0 17 15" version="1.1" xmlns="http://www.w3.org/2000/svg" xmlns:xlink="http://www.w3.org/1999/xlink">
    <!-- Generator: Sketch 55.2 (78181) - https://sketchapp.com -->
    <title>低风险</title>
    <desc>Created with Sketch.</desc>
    <g id="大屏new" stroke="none" stroke-width="1" fill="none" fill-rule="evenodd">
        <g id="3.智慧工业园区运维驾驶舱" transform="translate(-468.000000, -575.000000)" fill="#13C8F4" fill-rule="nonzero">
            <g id="编组备份" transform="translate(66.000000, 502.333333)">
                <g id="分组-8" transform="translate(0.000000, 39.000000)">
                    <g id="分组-20" transform="translate(25.852783, 29.000000)">
                        <path d="M392.39954,17.9196796 L385.004089,5.64312752 C384.896584,5.46363058 384.697113,5.35294118 384.481149,5.35294118 C384.265185,5.35294118 384.065714,5.46363058 383.958209,5.64312752 L376.562758,17.9196796 C376.454505,18.098231 376.453912,18.3185726 376.561202,18.4976567 C376.668493,18.6767408 376.867356,18.7873418 377.08284,18.7877739 L391.879458,18.7877739 C392.094942,18.7873418 392.293805,18.6767408 392.401096,18.4976567 C392.508386,18.3185726 392.507793,18.098231 392.39954,17.9196796 Z M384.081086,9.81380304 L384.881212,9.81380304 C384.991524,9.81417983 385.096633,9.85880732 385.171027,9.93686432 C385.24542,10.0149213 385.282295,10.119271 385.272702,10.2245845 L384.869782,14.2610863 C384.852432,14.4551628 384.682981,14.6042327 384.47972,14.6042327 C384.276459,14.6042327 384.107009,14.4551628 384.089659,14.2610863 L383.689596,10.2355384 C383.675592,10.1282526 383.710569,10.0203931 383.78556,9.93961077 C383.860551,9.85882844 383.968264,9.81297823 384.081086,9.81380304 L384.081086,9.81380304 Z M385.312722,16.3505374 C385.305032,16.5050352 385.171196,16.6260324 385.009804,16.6243842 L383.952494,16.6243842 C383.791102,16.6260324 383.657266,16.5050352 383.649576,16.3505374 L383.649576,15.5645971 C383.648818,15.4873865 383.680484,15.4131232 383.737457,15.3585246 C383.794431,15.303926 383.871925,15.2735806 383.952494,15.2743063 L385.009804,15.2743063 C385.090373,15.2735806 385.167867,15.303926 385.224841,15.3585246 C385.281814,15.4131232 385.31348,15.4873865 385.312722,15.5645971 L385.312722,16.3505374 Z" id="低风险"></path>
                    </g>
                </g>
            </g>
        </g>
    </g>
</svg>