<?xml version="1.0" encoding="UTF-8"?>
<svg width="9px" height="11px" viewBox="0 0 9 11" version="1.1" xmlns="http://www.w3.org/2000/svg" xmlns:xlink="http://www.w3.org/1999/xlink">
    <!-- Generator: Sketch 55.2 (78181) - https://sketchapp.com -->
    <title>形状结合</title>
    <desc>Created with Sketch.</desc>
    <g id="大屏new" stroke="none" stroke-width="1" fill="none" fill-rule="evenodd">
        <g id="3.智慧工业园区运维驾驶舱" transform="translate(-2370.000000, -363.000000)" fill="#FFFFFF" fill-rule="nonzero">
            <g id="编组-3备份-4" transform="translate(1914.000000, 354.333333)">
                <g id="编组-7备份" transform="translate(456.000000, 9.174888)">
                    <path d="M6.78792748,1.55 L1,1.55 C0.696243388,1.55 0.45,1.30375661 0.45,1 C0.45,0.696243388 0.696243388,0.45 1,0.45 L7.99733545,0.45 C7.99926023,0.449989953 8.00118516,0.449989951 8.00311018,0.45 L8.55,0.45 L8.55,0.997335451 C8.55001005,0.999260227 8.55001005,1.00118516 8.55,1.00311018 L8.55,9 C8.55,9.30375661 8.30375661,9.55 8,9.55 C7.69624339,9.55 7.45,9.30375661 7.45,9 L7.45,2.46379717 L1.41391718,9.36217753 C1.21389205,9.59077768 0.866422613,9.61394231 0.637822466,9.41391718 C0.409222318,9.21389205 0.386057689,8.86642261 0.586082818,8.63782247 L6.78792748,1.55 Z" id="形状结合"></path>
                </g>
            </g>
        </g>
    </g>
</svg>