<?xml version="1.0" encoding="UTF-8"?>
<svg width="165px" height="39px" viewBox="0 0 165 39" version="1.1" xmlns="http://www.w3.org/2000/svg" xmlns:xlink="http://www.w3.org/1999/xlink">
    <!-- Generator: Sketch 61.2 (89653) - https://sketch.com -->
    <title>title_left</title>
    <desc>Created with Sketch.</desc>
    <defs>
        <linearGradient x1="0%" y1="47.2066116%" x2="100%" y2="52.7933884%" id="linearGradient-1">
            <stop stop-color="#5C90FF" offset="0%"></stop>
            <stop stop-color="#000000" offset="100%"></stop>
        </linearGradient>
    </defs>
    <g id="数据大屏（全）" stroke="none" stroke-width="1" fill="none" fill-rule="evenodd" opacity="0.600000024">
        <g id="智慧炼厂" transform="translate(-920.000000, -50.000000)" fill="url(#linearGradient-1)">
            <g id="编组-7" transform="translate(47.000000, 36.000000)">
                <path d="M884,46 L880.272002,53 L873,53 L876.727998,46 L884,46 Z M895,46 L891.272002,53 L884,53 L887.727998,46 L895,46 Z M907,46 L903.272002,53 L896,53 L899.727998,46 L907,46 Z M918,46 L914.272002,53 L907,53 L910.727998,46 L918,46 Z M930,46 L926.272002,53 L919,53 L922.727998,46 L930,46 Z M941,46 L937.272002,53 L930,53 L933.727998,46 L941,46 Z M953,46 L949.272002,53 L942,53 L945.727998,46 L953,46 Z M964,46 L960.272002,53 L953,53 L956.727998,46 L964,46 Z M976,46 L972.272002,53 L965,53 L968.727998,46 L976,46 Z M987,46 L983.272002,53 L976,53 L979.727998,46 L987,46 Z M999,46 L995.272002,53 L988,53 L991.727998,46 L999,46 Z M1010,46 L1006.272,53 L999,53 L1002.728,46 L1010,46 Z M1022,46 L1018.272,53 L1011,53 L1014.728,46 L1022,46 Z M958,35 L954.272002,42 L947,42 L950.727998,35 L958,35 Z M970,35 L966.272002,42 L959,42 L962.727998,35 L970,35 Z M889,35 L885.272002,42 L878,42 L881.727998,35 L889,35 Z M981,35 L977.272002,42 L970,42 L973.727998,35 L981,35 Z M901,35 L897.272002,42 L890,42 L893.727998,35 L901,35 Z M993,35 L989.272002,42 L982,42 L985.727998,35 L993,35 Z M912,35 L908.272002,42 L901,42 L904.727998,35 L912,35 Z M1004,35 L1000.272,42 L993,42 L996.727998,35 L1004,35 Z M924,35 L920.272002,42 L913,42 L916.727998,35 L924,35 Z M1016,35 L1012.272,42 L1005,42 L1008.728,35 L1016,35 Z M935,35 L931.272002,42 L924,42 L927.727998,35 L935,35 Z M1027,35 L1023.272,42 L1016,42 L1019.728,35 L1027,35 Z M947,35 L943.272002,42 L936,42 L939.727998,35 L947,35 Z M895,25 L891.272002,32 L884,32 L887.727998,25 L895,25 Z M998,25 L994.272002,32 L987,32 L990.727998,25 L998,25 Z M952,25 L948.272002,32 L941,32 L944.727998,25 L952,25 Z M964,25 L960.272002,32 L953,32 L956.727998,25 L964,25 Z M1010,25 L1006.272,32 L999,32 L1002.728,25 L1010,25 Z M975,25 L971.272002,32 L964,32 L967.727998,25 L975,25 Z M906,25 L902.272002,32 L895,32 L898.727998,25 L906,25 Z M1021,25 L1017.272,32 L1010,32 L1013.728,25 L1021,25 Z M918,25 L914.272002,32 L907,32 L910.727998,25 L918,25 Z M987,25 L983.272002,32 L976,32 L979.727998,25 L987,25 Z M1033,25 L1029.272,32 L1022,32 L1025.728,25 L1033,25 Z M929,25 L925.272002,32 L918,32 L921.727998,25 L929,25 Z M941,25 L937.272002,32 L930,32 L933.727998,25 L941,25 Z M900,14 L896.272002,21 L889,21 L892.727998,14 L900,14 Z M912,14 L908.272002,21 L901,21 L904.727998,14 L912,14 Z M923,14 L919.272002,21 L912,21 L915.727998,14 L923,14 Z M935,14 L931.272002,21 L924,21 L927.727998,14 L935,14 Z M946,14 L942.272002,21 L935,21 L938.727998,14 L946,14 Z M958,14 L954.272002,21 L947,21 L950.727998,14 L958,14 Z M969,14 L965.272002,21 L958,21 L961.727998,14 L969,14 Z M981,14 L977.272002,21 L970,21 L973.727998,14 L981,14 Z M992,14 L988.272002,21 L981,21 L984.727998,14 L992,14 Z M1004,14 L1000.272,21 L993,21 L996.727998,14 L1004,14 Z M1015,14 L1011.272,21 L1004,21 L1007.728,14 L1015,14 Z M1027,14 L1023.272,21 L1016,21 L1019.728,14 L1027,14 Z M1038,14 L1034.272,21 L1027,21 L1030.728,14 L1038,14 Z" id="title_left" transform="translate(955.500000, 33.500000) scale(-1, 1) translate(-955.500000, -33.500000) "></path>
            </g>
        </g>
    </g>
</svg>