<?xml version="1.0" encoding="UTF-8"?>
<svg width="165px" height="39px" viewBox="0 0 165 39" version="1.1" xmlns="http://www.w3.org/2000/svg" xmlns:xlink="http://www.w3.org/1999/xlink">
    <!-- Generator: Sketch 61.2 (89653) - https://sketch.com -->
    <title>title_right</title>
    <desc>Created with Sketch.</desc>
    <defs>
        <linearGradient x1="0%" y1="47.2066116%" x2="100%" y2="52.7933884%" id="linearGradient-1">
            <stop stop-color="#5C90FF" offset="0%"></stop>
            <stop stop-color="#000000" offset="100%"></stop>
        </linearGradient>
    </defs>
    <g id="数据大屏（全）" stroke="none" stroke-width="1" fill="none" fill-rule="evenodd" opacity="0.600000024">
        <g id="智慧炼厂" transform="translate(-1615.000000, -50.000000)" fill="url(#linearGradient-1)">
            <g id="编组-7" transform="translate(47.000000, 36.000000)">
                <path d="M1579,46 L1575.272,53 L1568,53 L1571.728,46 L1579,46 Z M1590,46 L1586.272,53 L1579,53 L1582.728,46 L1590,46 Z M1602,46 L1598.272,53 L1591,53 L1594.728,46 L1602,46 Z M1613,46 L1609.272,53 L1602,53 L1605.728,46 L1613,46 Z M1625,46 L1621.272,53 L1614,53 L1617.728,46 L1625,46 Z M1636,46 L1632.272,53 L1625,53 L1628.728,46 L1636,46 Z M1648,46 L1644.272,53 L1637,53 L1640.728,46 L1648,46 Z M1659,46 L1655.272,53 L1648,53 L1651.728,46 L1659,46 Z M1671,46 L1667.272,53 L1660,53 L1663.728,46 L1671,46 Z M1682,46 L1678.272,53 L1671,53 L1674.728,46 L1682,46 Z M1694,46 L1690.272,53 L1683,53 L1686.728,46 L1694,46 Z M1705,46 L1701.272,53 L1694,53 L1697.728,46 L1705,46 Z M1717,46 L1713.272,53 L1706,53 L1709.728,46 L1717,46 Z M1653,35 L1649.272,42 L1642,42 L1645.728,35 L1653,35 Z M1665,35 L1661.272,42 L1654,42 L1657.728,35 L1665,35 Z M1584,35 L1580.272,42 L1573,42 L1576.728,35 L1584,35 Z M1676,35 L1672.272,42 L1665,42 L1668.728,35 L1676,35 Z M1596,35 L1592.272,42 L1585,42 L1588.728,35 L1596,35 Z M1688,35 L1684.272,42 L1677,42 L1680.728,35 L1688,35 Z M1607,35 L1603.272,42 L1596,42 L1599.728,35 L1607,35 Z M1699,35 L1695.272,42 L1688,42 L1691.728,35 L1699,35 Z M1619,35 L1615.272,42 L1608,42 L1611.728,35 L1619,35 Z M1711,35 L1707.272,42 L1700,42 L1703.728,35 L1711,35 Z M1630,35 L1626.272,42 L1619,42 L1622.728,35 L1630,35 Z M1722,35 L1718.272,42 L1711,42 L1714.728,35 L1722,35 Z M1642,35 L1638.272,42 L1631,42 L1634.728,35 L1642,35 Z M1590,25 L1586.272,32 L1579,32 L1582.728,25 L1590,25 Z M1693,25 L1689.272,32 L1682,32 L1685.728,25 L1693,25 Z M1647,25 L1643.272,32 L1636,32 L1639.728,25 L1647,25 Z M1659,25 L1655.272,32 L1648,32 L1651.728,25 L1659,25 Z M1705,25 L1701.272,32 L1694,32 L1697.728,25 L1705,25 Z M1670,25 L1666.272,32 L1659,32 L1662.728,25 L1670,25 Z M1601,25 L1597.272,32 L1590,32 L1593.728,25 L1601,25 Z M1716,25 L1712.272,32 L1705,32 L1708.728,25 L1716,25 Z M1613,25 L1609.272,32 L1602,32 L1605.728,25 L1613,25 Z M1682,25 L1678.272,32 L1671,32 L1674.728,25 L1682,25 Z M1728,25 L1724.272,32 L1717,32 L1720.728,25 L1728,25 Z M1624,25 L1620.272,32 L1613,32 L1616.728,25 L1624,25 Z M1636,25 L1632.272,32 L1625,32 L1628.728,25 L1636,25 Z M1595,14 L1591.272,21 L1584,21 L1587.728,14 L1595,14 Z M1607,14 L1603.272,21 L1596,21 L1599.728,14 L1607,14 Z M1618,14 L1614.272,21 L1607,21 L1610.728,14 L1618,14 Z M1630,14 L1626.272,21 L1619,21 L1622.728,14 L1630,14 Z M1641,14 L1637.272,21 L1630,21 L1633.728,14 L1641,14 Z M1653,14 L1649.272,21 L1642,21 L1645.728,14 L1653,14 Z M1664,14 L1660.272,21 L1653,21 L1656.728,14 L1664,14 Z M1676,14 L1672.272,21 L1665,21 L1668.728,14 L1676,14 Z M1687,14 L1683.272,21 L1676,21 L1679.728,14 L1687,14 Z M1699,14 L1695.272,21 L1688,21 L1691.728,14 L1699,14 Z M1710,14 L1706.272,21 L1699,21 L1702.728,14 L1710,14 Z M1722,14 L1718.272,21 L1711,21 L1714.728,14 L1722,14 Z M1733,14 L1729.272,21 L1722,21 L1725.728,14 L1733,14 Z" id="title_right"></path>
            </g>
        </g>
    </g>
</svg>