<?xml version="1.0" encoding="UTF-8"?>
<svg width="32px" height="31px" viewBox="0 0 32 31" version="1.1" xmlns="http://www.w3.org/2000/svg" xmlns:xlink="http://www.w3.org/1999/xlink">
    <!-- Generator: Sketch 55.2 (78181) - https://sketchapp.com -->
    <title>企业列表</title>
    <desc>Created with Sketch.</desc>
    <g id="大屏new" stroke="none" stroke-width="1" fill="none" fill-rule="evenodd">
        <g id="3.智慧工业园区运维驾驶舱" transform="translate(-89.000000, -144.000000)" fill="#99D8F1" fill-rule="nonzero">
            <g id="分组-16" transform="translate(66.000000, 127.000000)">
                <g id="分组-14">
                    <path d="M45.5882126,25.094114 L45.5882126,47.1176425 L25.8234976,47.1176425 L25.8234976,17 L45.5882126,17 L45.5882126,25.094114 Z M29.5882126,22.6470531 L29.5882126,27.3529469 L34.2941063,27.3529469 L34.2941063,22.6470531 L29.5882126,22.6470531 Z M37.1176425,22.6470531 L37.1176425,27.3529469 L41.8235362,27.3529469 L41.8235362,22.6470531 L37.1176425,22.6470531 Z M29.5882126,31.1176618 L29.5882126,35.8235555 L34.2941063,35.8235555 L34.2941063,31.1176618 L29.5882126,31.1176618 Z M37.1176425,31.1176618 L37.1176425,35.8235555 L41.8235362,35.8235555 L41.8235362,31.1176618 L37.1176425,31.1176618 Z M46.5294299,47.1176618 L46.5294299,30.1764831 L52.1765024,30.1764831 L52.1765024,47.1176618 L46.5294299,47.1176618 Z M23,44.2941295 L55,44.2941295 L55,47.1176618 L23,47.1176618 L23,44.2941295 Z" id="企业列表"></path>
                </g>
            </g>
        </g>
    </g>
</svg>