<?xml version="1.0" encoding="UTF-8"?>
<svg width="34px" height="34px" viewBox="0 0 34 34" version="1.1" xmlns="http://www.w3.org/2000/svg" xmlns:xlink="http://www.w3.org/1999/xlink">
    <!-- Generator: Sketch 55.2 (78181) - https://sketchapp.com -->
    <title>最大化</title>
    <desc>Created with Sketch.</desc>
    <g id="大屏new" stroke="none" stroke-width="1" fill="none" fill-rule="evenodd">
        <g id="3.智慧工业园区运维驾驶舱" transform="translate(-1803.000000, -485.000000)" fill-rule="nonzero">
            <g id="最大化" transform="translate(1803.000000, 485.000000)">
                <rect id="矩形" fill-opacity="0.6" fill="#00042C" x="0" y="0" width="34" height="34"></rect>
                <path d="M26.6102257,18.67249 L26.6088517,18.67249 C26.9731213,18.6711704 27.3229725,18.8018842 27.5810672,19.0357457 C27.8391619,19.2696072 27.9842408,19.5873558 27.9842408,19.91875 L27.9842408,24.50125 C27.9842408,25.8775 26.7544973,27 25.2389588,27 L20.2018198,27 C19.4612257,27 18.8319241,26.44 18.8319241,25.7475 C18.8311954,25.4157758 18.9757223,25.0974467 19.2335589,24.8628818 C19.4913954,24.6283169 19.8413066,24.4968346 20.2059418,24.4975 L23.8608217,24.4975 C24.6191326,24.4968101 25.2334631,23.9373681 25.2334627,23.2475 L25.2334627,19.9225 C25.233462,19.5905458 25.378601,19.2722239 25.6368735,19.0377315 C25.8951459,18.803239 26.2453384,18.6718361 26.6102257,18.67249 Z M7.37401571,15.3287601 L7.37538972,15.3287601 C7.01088195,15.3300806 6.66082167,15.1991955 6.40268716,14.9650634 C6.14455265,14.7309312 5.99963215,14.4128608 6,14.08125 L6,9.5 C6,8.12500001 7.22974413,7 8.7466567,7 L13.7837957,7 C14.5243898,7 15.1536886,7.56125001 15.1523208,8.2525 C15.1534122,8.5844405 15.0090468,8.90309156 14.7511705,9.13792727 C14.4932941,9.37276298 14.1431735,9.50441671 13.7782996,9.50375 L10.1234197,9.50375 C9.36510884,9.50443986 8.75077836,10.0638819 8.75077874,10.75375 L8.75077874,14.07875 C8.75077947,14.4107042 8.60564042,14.7290261 8.34736797,14.9635185 C8.08909552,15.198011 7.73890304,15.3294139 7.37401571,15.3287601 Z M24.0930259,9.08150613 L20.9253207,9.08150613 C20.3104086,9.06024433 19.8239673,8.60056878 19.8239673,8.04075307 C19.8239673,7.48093735 20.3104086,7.0212618 20.9253207,7 L26.714746,7 C27.4003249,7 27.997522,7.3915035 28,8.04225596 L28,13.4368886 C27.9766288,13.9963004 27.4713479,14.4388368 26.8559917,14.4388368 C26.2406356,14.4388368 25.7353547,13.9963004 25.7119835,13.4368886 L25.7119835,10.4904679 L21.6612856,14.1755603 C21.3781363,14.4327506 20.9656733,14.5329801 20.5792674,14.4384931 C20.1928616,14.3440062 19.8912171,14.0691577 19.7879606,13.7174804 C19.6847041,13.3658032 19.7955227,12.9907253 20.078672,12.7335349 L24.0930259,9.08150613 Z M13.075431,24.9002946 C13.6904085,24.9215586 14.1769015,25.381283 14.1769015,25.9411582 C14.1769015,26.5010334 13.6904085,26.9607578 13.075431,26.9820219 L7.28456453,26.9820219 C6.53943449,26.9820219 6,26.612271 6,25.9411582 L6,20.5452008 C6.02337371,19.9857295 6.52870828,19.5431462 7.14412982,19.5431462 C7.75955136,19.5431462 8.26488593,19.9857295 8.28825964,20.5452008 L8.28825964,23.4926862 L12.3393879,19.8072022 C12.6221246,19.5499845 13.0342224,19.4495296 13.420448,19.5436778 C13.8066735,19.637826 14.10835,19.9122739 14.2118388,20.2636398 C14.3153277,20.6150056 14.2049064,20.9899085 13.9221697,21.2471262 L9.90738921,24.899543 L13.075431,24.899543 L13.075431,24.9002946 Z" id="合并形状" fill="#3FCAF1"></path>
            </g>
        </g>
    </g>
</svg>