<?xml version="1.0" encoding="UTF-8"?>
<svg width="33px" height="31px" viewBox="0 0 33 31" version="1.1" xmlns="http://www.w3.org/2000/svg" xmlns:xlink="http://www.w3.org/1999/xlink">
    <!-- Generator: Sketch 55.2 (78181) - https://sketchapp.com -->
    <title>国家政策</title>
    <desc>Created with Sketch.</desc>
    <g id="大屏new" stroke="none" stroke-width="1" fill="none" fill-rule="evenodd">
        <g id="3.智慧工业园区运维驾驶舱" transform="translate(-638.000000, -143.000000)" fill="#99D8F1" fill-rule="nonzero">
            <g id="分组-16" transform="translate(66.000000, 127.000000)">
                <g id="分组-14-copy-6" transform="translate(549.040793, 0.000000)">
                    <g id="cube_3">
                        <path d="M52.6403435,16.0896293 L39,19.9866985 L25.3596201,16.0896293 C24.0778539,15.723301 23,16.5123185 23,17.8654194 L23,37.5804722 C23,38.9093456 24.00845,40.46308 25.2526909,40.996196 L37.9780699,46.45006 C38.3438153,46.6066102 38.6918544,46.6580892 39,46.6173213 C39.3080363,46.6581257 39.6561483,46.6066102 40.0218936,46.4500964 L52.7473091,40.996196 C53.9915135,40.46308 55,38.9092727 55,37.5804358 L55,17.865383 C55,16.512282 53.922219,15.723301 52.6403435,16.0896293 Z M50.4358163,31.3508157 L43.0849149,33.8265825 C42.4409715,34.0434648 41.7428894,33.6973566 41.525752,33.0531217 C41.3088333,32.4089596 41.6553787,31.7107683 42.29965,31.4939588 L49.6501871,29.0181192 C50.2943855,28.8012369 50.9925405,29.1475637 51.2093864,29.7917986 C51.4265237,30.4357785 51.0799783,31.133897 50.4357798,31.3508157 L50.4358163,31.3508157 Z M50.4358163,36.273859 L43.0849149,38.7496258 C42.4409715,38.9665445 41.7428894,38.6203634 41.525752,37.976165 C41.3088333,37.3319665 41.6553787,36.6339209 42.29965,36.4169657 L49.6501871,33.9412354 C50.2943855,33.7243166 50.9925405,34.0708256 51.2093864,34.7150969 C51.4265237,35.3588582 51.0799783,36.0569767 50.4357798,36.273859 L50.4358163,36.273859 Z M50.4358163,26.427736 L43.0849149,28.9035027 C42.4409715,29.1203851 41.7428894,28.7740583 41.525752,28.1300419 C41.3088333,27.4857706 41.6553787,26.787725 42.29965,26.5708062 L49.6501871,24.0950395 C50.2943855,23.8781207 50.9925405,24.224484 51.2093864,24.8686824 C51.4265237,25.5127352 51.0799783,26.2107808 50.4357798,26.427736 L50.4358163,26.427736 Z M34.5092277,34.1672987 L31.6153622,32.6461713 L28.7214603,34.1672987 L29.2741405,30.9453955 L26.9331738,28.663085 L30.1684477,28.1931065 L31.6153622,25.2615699 L33.0622403,28.1930701 L36.2975142,28.663085 L33.956511,30.9453955 L34.5091912,34.1672987 L34.5092277,34.1672987 Z" id="国家政策"></path>
                    </g>
                </g>
            </g>
        </g>
    </g>
</svg>