<?xml version="1.0" encoding="UTF-8"?>
<svg width="40px" height="40px" viewBox="0 0 40 40" version="1.1" xmlns="http://www.w3.org/2000/svg" xmlns:xlink="http://www.w3.org/1999/xlink">
    <!-- Generator: Sketch 55.2 (78181) - https://sketchapp.com -->
    <title>Point</title>
    <desc>Created with Sketch.</desc>
    <g id="大屏new" stroke="none" stroke-width="1" fill="none" fill-rule="evenodd">
        <g id="3.智慧工业园区运维驾驶舱" transform="translate(-1752.000000, -677.000000)">
            <g id="Point" transform="translate(1752.000000, 677.000000)">
                <rect id="Bg" fill="#FEC400" x="0" y="0" width="40" height="40" rx="20"></rect>
                <g id="Pointer-Icon" transform="translate(13.000000, 10.000000)" fill="#FFFFFF">
                    <path d="M7.36125,3.8875 C5.46291667,3.8875 3.92375,5.42916667 3.92375,7.325 C3.92375,9.225 5.46291667,10.7625 7.36125,10.7625 C9.25958333,10.7625 10.79875,9.225 10.79875,7.325 C10.79875,5.42916667 9.25958333,3.8875 7.36125,3.8875 Z M7.36125,5.1375 C8.5675,5.1375 9.54875,6.12083333 9.54875,7.325 C9.54875,8.53333333 8.5675,9.5125 7.36125,9.5125 C6.155,9.5125 5.17375,8.53333333 5.17375,7.325 C5.17375,6.12083333 6.155,5.1375 7.36125,5.1375 L7.36125,5.1375 Z" id="Fill-375"></path>
                    <path d="M7.36125,1.66666667 C4.24041667,1.66666667 1.70125,4.20833333 1.70125,7.325 C1.70125,8.40416667 2.00458333,9.45 2.57833333,10.3541667 L7.36125,17.6458333 L12.1475,10.35 C12.7191667,9.44583333 13.0208333,8.40416667 13.0208333,7.325 C13.0208333,4.20833333 10.4820833,1.66666667 7.36125,1.66666667 Z M7.36125,20 C7.08041667,20 6.81833333,19.8583333 6.66458333,19.625 L1.17791667,11.2583333 C0.427916667,10.0791667 0.0345833333,8.72083333 0.0345833333,7.325 C0.0345833333,3.2875 3.32125,0 7.36125,0 C11.40125,0 14.6875,3.2875 14.6875,7.325 C14.6875,8.72083333 14.2945833,10.0791667 13.5508333,11.25 C13.5491667,11.25 13.5466667,11.2541667 13.5445833,11.2583333 L8.05791667,19.625 C7.90416667,19.8583333 7.64208333,20 7.36125,20 L7.36125,20 Z" id="Fill-376"></path>
                </g>
            </g>
        </g>
    </g>
</svg>