<?xml version="1.0" encoding="UTF-8"?>
<svg width="16px" height="22px" viewBox="0 0 16 22" version="1.1" xmlns="http://www.w3.org/2000/svg" xmlns:xlink="http://www.w3.org/1999/xlink">
    <!-- Generator: Sketch 55.2 (78181) - https://sketchapp.com -->
    <title>气</title>
    <desc>Created with Sketch.</desc>
    <g id="大屏new" stroke="none" stroke-width="1" fill="none" fill-rule="evenodd">
        <g id="3.智慧工业园区运维驾驶舱" transform="translate(-2419.000000, -515.000000)" fill="#3BB5E4">
            <g id="编组-3备份-4" transform="translate(1914.000000, 354.333333)">
                <g id="编组-8" transform="translate(482.000000, 148.977578)">
                    <path d="M27.4852259,32.930369 C28.3384387,33.2536501 28.6229012,32.3643296 28.2674104,32.0416435 C27.1295606,31.1525213 26.5608103,29.5363141 26.9875039,28.0817475 C27.4141976,26.4655403 28.5518728,25.8189781 28.5518728,23.3945681 C28.5518728,23.3945681 29.9740105,24.6067731 29.689548,26.4653419 C31.1118602,24.6067731 30.4717325,22.1825615 30.18727,21.0508793 C33.8137298,23.2329275 36.9426421,28.000828 33.3161823,32.0414451 C32.8894887,32.4450507 33.3161823,33.1727307 33.9561355,32.9301707 C43.8398963,26.5462614 36.3738917,17.0102621 35.0939853,15.8787783 C35.5206789,17.0102621 35.5918818,18.7881099 34.73832,19.6770337 C33.2449794,13.2931244 29.6186942,12 29.6186942,12 C30.0452133,15.3133338 27.983297,18.8690293 26.0632628,21.6167204 C25.9922344,20.2426765 25.9210316,19.3537526 25.3522812,18.141746 C25.21005,20.4850382 23.5744783,22.4245265 23.1479591,24.8489364 C22.5788597,28.0817475 23.5743037,30.4250396 27.4852259,32.930369 L27.4852259,32.930369 Z" id="气"></path>
                </g>
            </g>
        </g>
    </g>
</svg>