<?xml version="1.0" encoding="UTF-8"?>
<svg width="15px" height="20px" viewBox="0 0 15 20" version="1.1" xmlns="http://www.w3.org/2000/svg" xmlns:xlink="http://www.w3.org/1999/xlink">
    <!-- Generator: Sketch 55.2 (78181) - https://sketchapp.com -->
    <title>水</title>
    <desc>Created with Sketch.</desc>
    <g id="大屏new" stroke="none" stroke-width="1" fill="none" fill-rule="evenodd">
        <g id="3.智慧工业园区运维驾驶舱" transform="translate(-2419.000000, -420.000000)" fill="#3BB5E4">
            <g id="编组-3备份-4" transform="translate(1914.000000, 354.333333)">
                <g id="编组-8" transform="translate(482.000000, 52.977578)">
                    <g id="水" transform="translate(23.000000, 12.022422)">
                        <path d="M7.19966557,19.9177632 C3.29222283,19.9177632 0.112311881,16.6127926 0.112311881,12.5512902 C0.112311881,8.59492504 6.61365972,1.46843952 6.89007757,1.16674097 C6.96968591,1.07988836 7.0824644,1.02960526 7.19966557,1.02960526 C7.31686673,1.02960526 7.42743387,1.07988836 7.50925356,1.16674097 C7.78567141,1.46843952 14.2870193,8.59492504 14.2870193,12.5512902 C14.2870193,16.6127926 11.1093196,19.9177632 7.19966557,19.9177632 Z M8.67741292,15.5676432 C6.43890551,16.1843708 5.74365609,17.0173149 6.59166465,18.0664755 C7.62804543,19.0158197 9.36912945,18.9213418 10.8712,17.4506179 C11.1740325,17.1541052 11.980117,16.2790588 12.424494,15.104361 C12.9260679,13.778465 12.9818704,12.1201826 12.9818704,11.6643135 C12.9818704,10.8178074 12.3688151,13.156699 11.4840082,14.0010915 C10.4282285,14.8766487 9.49269673,15.3988326 8.67741292,15.5676432 Z" id="z"></path>
                    </g>
                </g>
            </g>
        </g>
    </g>
</svg>