<?xml version="1.0" encoding="UTF-8"?>
<svg width="35px" height="27px" viewBox="0 0 35 27" version="1.1" xmlns="http://www.w3.org/2000/svg" xmlns:xlink="http://www.w3.org/1999/xlink">
    <!-- Generator: Sketch 55.2 (78181) - https://sketchapp.com -->
    <title>物流管理</title>
    <desc>Created with Sketch.</desc>
    <g id="大屏new" stroke="none" stroke-width="1" fill="none" fill-rule="evenodd">
        <g id="3.智慧工业园区运维驾驶舱" transform="translate(-455.000000, -146.000000)" fill="#99D8F1" fill-rule="nonzero">
            <g id="分组-16" transform="translate(66.000000, 127.000000)">
                <g id="分组-14-copy-4" transform="translate(366.027195, 0.000000)">
                    <path d="M28.4576278,42.5061121 C28.4576278,41.246855 29.0872564,40.1974729 30.1382763,39.7777194 L30.1382764,39.7777194 C31.169082,39.1481109 32.465492,39.1481109 33.4962977,39.7777195 C34.5456798,40.197473 35.1769461,41.2468517 35.1769461,42.5061122 C35.1769461,43.5554943 34.5473176,44.6048763 33.4962977,45.2345049 L33.4962977,45.2345049 C32.465492,45.8641133 31.169082,45.8641133 30.1382764,45.2345049 C29.0888943,44.8147514 28.4576278,43.7653727 28.4576278,42.5061122 L28.4576278,42.5061121 Z M46.7168665,42.5061121 C46.7168665,41.246855 47.3464951,40.1974729 48.397515,39.7777194 L48.3975151,39.7777193 C49.4283442,39.1482049 50.7247039,39.1482049 51.7555364,39.7777194 C52.8049185,40.1974729 53.4361849,41.2468516 53.4361849,42.5061121 C53.4361849,43.5554942 52.8065563,44.6048763 51.7555364,45.2345048 L51.7555367,45.2345046 C50.7247076,45.8640191 49.4283479,45.8640191 48.3975154,45.2345051 C47.3481333,44.8147516 46.7168665,43.7653729 46.7168665,42.5061124 L46.7168665,42.5061121 Z M53.2230139,25.9259009 C52.5933853,25.0863972 52.3835103,24.4551275 51.3341282,24.4551275 L46.7168363,24.4551275 L46.7168363,20.4691322 C46.7168363,19.8395036 46.0872077,19.2098751 45.4575792,19 L24.2600761,19 C23.6304475,19.2082366 23,19.8395036 23,20.6790106 L23,40.4073816 C23,41.2468852 23.6296286,41.8765138 24.2592571,41.8765138 L26.9884688,41.8765138 C27.4082223,39.5678746 29.297108,37.888874 31.6057606,37.888874 C33.9143999,37.888874 35.8032956,39.5695224 36.2230525,41.8765138 L45.247741,41.8765138 C45.6674945,39.5678746 47.5563802,37.888874 49.8650329,37.888874 C52.1736721,37.888874 54.0625679,39.5678846 54.4814857,41.8765138 L55.7407429,41.8765138 C56.3703714,41.8765138 57,41.2468852 57,40.4073816 L57,33.9012342 C57,32.641977 56.1604964,31.1728415 56.1604964,31.1728415 L53.2230139,25.9259009 Z M47.9761035,27.185158 L51.1242464,27.185158 C51.3341225,27.185158 51.753875,27.6049115 51.753875,27.6049115 L54.2723893,32.6419267 C54.4814458,33.063318 54.9020178,33.4814303 54.9020178,33.9011838 L47.9744691,33.9011838 L47.9761035,27.185158 Z" id="物流管理"></path>
                </g>
            </g>
        </g>
    </g>
</svg>