<?xml version="1.0" encoding="UTF-8"?>
<svg width="33px" height="30px" viewBox="0 0 33 30" version="1.1" xmlns="http://www.w3.org/2000/svg" xmlns:xlink="http://www.w3.org/1999/xlink">
    <!-- Generator: Sketch 55.2 (78181) - https://sketchapp.com -->
    <title>形状</title>
    <desc>Created with Sketch.</desc>
    <g id="大屏new" stroke="none" stroke-width="1" fill="none" fill-rule="evenodd">
        <g id="3.智慧工业园区运维驾驶舱" transform="translate(-363.000000, -142.000000)" fill="#99D8F1" fill-rule="nonzero">
            <g id="分组-16" transform="translate(66.000000, 127.000000)">
                <g id="分组-14-copy-3" transform="translate(274.520397, 0.000000)">
                    <path d="M40.1119999,21.6770001 L40.1119999,19.3230001 L40.112,19.323 C40.8331063,18.9088313 41.276525,18.139575 41.2735,17.308 C41.2735,16.033 40.2585,15 39.0065,15 C37.754,15 36.739,16.033 36.739,17.3075 C36.739,18.1675 37.201,18.9175 37.886,19.3145 L37.886,21.677 L29.82,21.677 C26.055,21.681 23.004,24.7865 23,28.6185 L23,38.0515 C23,41.8865 26.0525,44.996 29.82,45 L48.18,45 C51.9475,44.9960001 55,41.886 55,38.0515 L55,28.6185 C54.996,24.7865 51.945,21.681 48.18,21.677 L40.112,21.677 L40.1119999,21.6770001 Z M32.9664999,30.6600001 C34.4184999,30.6620001 35.5949999,31.8600001 35.5969999,33.3375001 C35.5969999,34.8165001 34.4189999,36.0150001 32.9664999,36.0150001 C31.5134999,36.0150001 30.3354999,34.8165001 30.3354999,33.3375001 C30.3354999,31.8590001 31.5134999,30.6600001 32.9664999,30.6600001 L32.9664999,30.6600001 Z M45.0194999,30.6600001 C46.4714999,30.6620001 47.6479999,31.8600001 47.6499999,33.3375001 C47.6499999,34.4205001 47.0089999,35.3970001 46.0259999,35.8110001 L46.0259997,35.8110001 C45.041956,36.2252758 43.9046372,35.9951939 43.1589997,35.2310001 L43.1589998,35.2310002 C42.4053811,34.4583627 42.1815373,33.312444 42.5889998,32.3130002 C42.9959998,31.3125002 43.9554998,30.6600001 45.0189998,30.6600001 L45.0194999,30.6600001 Z" id="形状"></path>
                </g>
            </g>
        </g>
    </g>
</svg>