<?xml version="1.0" encoding="UTF-8"?>
<svg width="13px" height="22px" viewBox="0 0 13 22" version="1.1" xmlns="http://www.w3.org/2000/svg" xmlns:xlink="http://www.w3.org/1999/xlink">
    <!-- Generator: Sketch 55.2 (78181) - https://sketchapp.com -->
    <title>电</title>
    <desc>Created with Sketch.</desc>
    <g id="大屏new" stroke="none" stroke-width="1" fill="none" fill-rule="evenodd">
        <g id="3.智慧工业园区运维驾驶舱" transform="translate(-2421.000000, -467.000000)" fill="#3BB5E4">
            <g id="编组-3备份-4" transform="translate(1914.000000, 354.333333)">
                <g id="编组-8" transform="translate(482.000000, 99.977578)">
                    <path d="M33.1298279,14.4149653 L33.2285759,14.4149653 L33.1298279,14.4149653 Z M33.0970381,13.0224215 L33.0008064,13.0224215 C32.7314926,13.0635261 32.4622239,13.1867916 32.2119311,13.4950277 L32.1541921,13.5770924 L25.2462376,23.3168025 C24.9575873,23.7483041 24.9190946,24.2210064 25.1499156,24.6935644 C25.3617157,25.125066 25.7850003,25.4127017 26.2468227,25.4127017 L29.8065873,25.4333021 L28.6713678,32.4813376 C28.5750459,33.0772574 28.8830777,33.6731772 29.402504,33.9197564 C29.556565,34.0019174 29.7297371,34.0224215 29.9029093,34.0224215 C30.2684999,34.0224215 30.5956429,33.8374992 30.8458455,33.4880623 L37.7538,22.9265017 C38.0424502,22.494952 38.0808528,22.0223459 37.8501219,21.5497398 C37.6192107,21.0771818 37.2534398,20.8305544 36.7532148,20.8305544 L33.1934051,20.8305544 L34.3094234,14.645522 C34.3285345,14.5428569 34.3478259,14.4401437 34.3478259,14.3374785 C34.3478259,13.6183413 33.7898619,13.0224215 33.1547772,13.0224215 L33.0970381,13.0224215 L33.0970381,13.0224215 Z" id="电"></path>
                </g>
            </g>
        </g>
    </g>
</svg>