<?xml version="1.0" encoding="UTF-8"?>
<svg width="29px" height="32px" viewBox="0 0 29 32" version="1.1" xmlns="http://www.w3.org/2000/svg" xmlns:xlink="http://www.w3.org/1999/xlink">
    <!-- Generator: Sketch 55.2 (78181) - https://sketchapp.com -->
    <title>行政审批</title>
    <desc>Created with Sketch.</desc>
    <g id="大屏new" stroke="none" stroke-width="1" fill="none" fill-rule="evenodd">
        <g id="3.智慧工业园区运维驾驶舱" transform="translate(-731.000000, -141.000000)" fill="#99D8F1" fill-rule="nonzero">
            <g id="分组-16" transform="translate(66.000000, 127.000000)">
                <g id="分组-14-copy-7" transform="translate(640.547592, 0.000000)">
                    <g id="cube_3">
                        <path d="M33.0876795,30.9434197 C32.9554171,31.1098144 32.4242342,31.7049951 32.3154377,31.8543236 C31.7906547,32.5796335 31.6519925,33.72093 31.8546526,34.4185075 C32.1426433,35.3998091 33.1260782,35.5128721 33.8577879,35.5854031 C35.5494666,35.7560643 37.2667445,35.6430013 38.9776225,35.6430013 C40.6415688,35.6430013 42.305515,35.6174021 43.9715945,35.6515343 C44.9571627,35.6686004 45.7848693,35.3976758 46.194456,34.4718391 C46.6317753,33.4820044 46.4077825,32.5476346 45.6654065,31.7540602 C45.4030149,31.4767358 45.1299571,31.1994115 44.8568993,30.9306202 C44.233986,30.3055737 44.2467856,29.6805272 44.7993011,29.0064156 C45.3112846,28.3813692 45.8382009,27.7520562 46.2712536,27.0715448 L46.2712535,27.0715449 C48.5998716,23.4173896 47.7913111,18.5945521 44.3982474,15.8996392 C40.9850243,13.1583944 36.0230512,13.4122528 32.9511505,16.4777538 C29.6147249,19.8077796 30.1565741,25.305202 33.1260782,29.0277484 C33.8087228,29.8853207 33.4972662,30.4271698 33.0876794,30.9434198 L33.0876795,30.9434197 Z M52.995303,39.8113999 C52.9889032,38.0194578 52.2251946,37.1682853 50.4609849,37.166152 C42.8132319,37.1512192 35.1676123,37.1554857 27.5219926,37.1768184 C25.7684492,37.1789516 25.0260732,37.9618597 25.0047406,39.6834041 C24.9940743,40.489778 25.0047406,41.2940187 25.0047406,42.1899898 L52.995303,42.1899898 C52.995303,41.336684 52.9995695,40.5729753 52.995303,39.8113999 L52.995303,39.8113999 Z M26.5705567,45.9978667 L51.3676223,45.9978667 L51.3676223,43.4464825 L26.5684234,43.4464825 L26.5684234,46 L26.5705567,45.9978667 Z" id="行政审批"></path>
                    </g>
                </g>
            </g>
        </g>
    </g>
</svg>