<?xml version="1.0" encoding="UTF-8"?>
<svg width="28px" height="32px" viewBox="0 0 28 32" version="1.1" xmlns="http://www.w3.org/2000/svg" xmlns:xlink="http://www.w3.org/1999/xlink">
    <!-- Generator: Sketch 55.2 (78181) - https://sketchapp.com -->
    <title>通讯录</title>
    <desc>Created with Sketch.</desc>
    <g id="大屏new" stroke="none" stroke-width="1" fill="none" fill-rule="evenodd">
        <g id="3.智慧工业园区运维驾驶舱" transform="translate(-549.000000, -141.000000)" fill="#99D8F1" fill-rule="nonzero">
            <g id="分组-16" transform="translate(66.000000, 127.000000)">
                <g id="分组-14-copy-5" transform="translate(457.533994, 0.000000)">
                    <path d="M47.0879853,34.8113412 C47.0879853,32.4336026 45.161982,30.5075993 42.7842434,30.5075993 L39.3419502,30.5075993 C36.9642116,30.5075993 35.0382083,32.4336026 35.0382083,34.8113412 L35.0382083,36.5342387 L47.0914872,36.5342387 L47.0914872,34.8113412 L47.0879853,34.8113412 Z M37.1848265,25.3389068 C37.1848265,27.4785214 38.9182295,29.2119243 41.0578441,29.2119243 C43.1974587,29.2119243 44.9343635,27.4785214 44.9343635,25.3389068 C44.9343635,23.1992922 43.2009605,21.4658892 41.0613459,21.4658892 C38.9217313,21.4658892 37.1848265,23.1992922 37.1848265,25.3389068 Z M53.111123,18.0130905 L53.111123,41.4963236 C53.111123,43.7164802 51.3111853,45.512916 49.0945306,45.512916 L31.5188749,45.512916 C29.2987184,45.512916 27.5022826,43.7129784 27.5022826,41.4963236 L27.5022826,40.0500702 L29.7609592,40.0500702 C31.0041068,40.0500702 32.0196358,39.0345412 32.0196358,37.7913936 C32.0196358,36.5447442 31.0041068,35.532717 29.7609592,35.532717 L27.5022826,35.532717 L27.5022826,32.0098819 L29.7609592,32.0098819 C31.0041068,32.0098819 32.0196358,30.9943529 32.0196358,29.7512053 C32.0196358,28.5045558 31.0041068,27.4925287 29.7609592,27.4925287 L27.5022826,27.4925287 L27.5022826,23.9766972 L29.7609592,23.9766972 C31.0041068,23.9766972 32.0196358,22.9611681 32.0196358,21.7180205 C32.0196358,20.4713711 31.0041068,19.4593439 29.7609592,19.4593439 L27.5022826,19.4593439 L27.5022826,18.0165924 C27.5022826,15.7964358 29.3022202,14 31.5188749,14 L49.0945306,14 C51.3146872,14 53.111123,15.2361439 53.111123,17.4527987 L53.111123,18.0130905 Z M31.0181141,37.78439 C31.0181141,37.0910288 30.4578222,36.5307369 29.764461,36.5307369 L27.2536531,36.5307369 C26.5602919,36.5307369 26,37.0910288 26,37.78439 C26,38.4777512 26.5602919,39.0380594 27.2536531,39.0380594 L29.764461,39.0380594 C30.4543204,39.0415449 31.0181141,38.481253 31.0181141,37.78439 Z M31.0181141,21.7180205 C31.0181141,21.0246594 30.4578222,20.4643675 29.764461,20.4643675 L27.2536531,20.4643675 C26.5602919,20.4643675 26,21.0246594 26,21.7180205 C26,22.4113817 26.5602919,22.9716736 27.2536531,22.9716736 L29.764461,22.9716736 C30.4543204,22.9716736 31.0181141,22.4113817 31.0181141,21.7180205 Z M31.0181141,29.7512053 C31.0181141,30.4445665 30.4578222,31.0048583 29.764461,31.0048583 L27.2536531,31.0048583 C26.5602919,31.0048583 26,30.4445665 26,29.7512053 C26,29.0578441 26.5602919,28.4975522 27.2536531,28.4975522 L29.764461,28.4975522 C30.4543204,28.4975522 31.0181141,29.0578441 31.0181141,29.7512053 L31.0181141,29.7512053 Z" id="通讯录"></path>
                </g>
            </g>
        </g>
    </g>
</svg>