<?xml version="1.0" encoding="UTF-8"?>
<svg width="31px" height="32px" viewBox="0 0 31 32" version="1.1" xmlns="http://www.w3.org/2000/svg" xmlns:xlink="http://www.w3.org/1999/xlink">
    <!-- Generator: Sketch 55.2 (78181) - https://sketchapp.com -->
    <title>风险</title>
    <desc>Created with Sketch.</desc>
    <g id="大屏new" stroke="none" stroke-width="1" fill="none" fill-rule="evenodd">
        <g id="3.智慧工业园区运维驾驶舱" transform="translate(-273.000000, -140.000000)" fill="#99D8F1" fill-rule="nonzero">
            <g id="分组-16" transform="translate(66.000000, 127.000000)">
                <g id="分组-14-copy-2" transform="translate(183.013598, 0.000000)">
                    <g id="风险" transform="translate(24.000000, 13.000000)">
                        <path d="M2.96181516,26.5810736 L27.6436082,26.5810736 L27.6436082,28.6751522 L2.96181516,28.6751522 L2.96181516,26.5810736 Z M0.925290537,29.9059214 L29.8040952,29.9059214 L29.8040952,32 L0.925290537,32 L0.925290537,29.9059214 Z M7.03486442,25.3503044 L7.03486442,15.3846154 C7.03486442,10.7625899 10.7935805,7.01715551 15.4244604,7.01715551 C20.0597676,7.01715551 23.8140564,10.7625899 23.8140564,15.3846154 L23.8140564,25.3547316 L7.03486442,25.3503044 Z M14.3752075,0 L16.4737133,0 L16.4737133,4.55561704 L14.3752075,4.55561704 L14.3752075,0 L14.3752075,0 Z M0,14.3353625 L4.5644715,14.3353625 L4.5644715,16.4294411 L0,16.4294411 L0,14.3353625 L0,14.3353625 Z M26.2844494,14.3353625 L30.8489209,14.3353625 L30.8489209,16.4294411 L26.2844494,16.4294411 L26.2844494,14.3353625 Z M5.25511898,3.76314333 L8.48256779,6.99059214 L7.00387382,8.46928611 L3.77642501,5.2418373 L5.25511898,3.76314333 L5.25511898,3.76314333 Z M25.5849474,3.76314333 L27.0680686,5.24626453 L23.8494743,8.46485888 L22.3663531,6.98173769 L25.5849474,3.76314333 Z M12.3563918,17.8992806 C12.2944106,18.0852241 12.418373,18.2091865 12.6087438,18.2091865 L14.4548976,18.2091865 C14.7028224,18.2091865 14.8223575,18.39513 14.7648035,18.5766464 L14.1494189,21.5915883 C14.0254566,22.3929164 14.2733813,22.5168788 14.7028224,21.839513 L18.452684,16.4914222 C18.5766464,16.3674599 18.5146652,16.2434975 18.2667405,16.1815163 L15.9291644,16.1195351 C15.7432208,16.1195351 15.6812396,15.9955728 15.7432208,15.8140564 L17.031544,12.7371334 C17.1555064,12.5511898 17.031544,12.4316547 16.8456004,12.4316547 L14.813503,12.4316547 C14.6275595,12.4316547 14.3796348,12.555617 14.3220808,12.7371334 L12.3563918,17.8992806 L12.3563918,17.8992806 Z" id="形状"></path>
                    </g>
                </g>
            </g>
        </g>
    </g>
</svg>