<?xml version="1.0" encoding="UTF-8"?>
<svg width="35px" height="31px" viewBox="0 0 35 31" version="1.1" xmlns="http://www.w3.org/2000/svg" xmlns:xlink="http://www.w3.org/1999/xlink">
    <!-- Generator: Sketch 55.2 (78181) - https://sketchapp.com -->
    <title>风险管控</title>
    <desc>Created with Sketch.</desc>
    <g id="大屏new" stroke="none" stroke-width="1" fill="none" fill-rule="evenodd">
        <g id="3.智慧工业园区运维驾驶舱" transform="translate(-179.000000, -142.000000)" fill="#99D8F1" fill-rule="nonzero">
            <g id="分组-16" transform="translate(66.000000, 127.000000)">
                <g id="分组-14-copy" transform="translate(91.506799, 0.000000)">
                    <path d="M38.0442996,15.5737278 C38.6817749,14.8087574 39.5300421,14.8087574 40.1658175,15.5737278 L55.8647099,43.6872531 C56.2896935,44.6443161 55.6522182,45.5996791 54.803951,45.5996791 L23.1953676,45.5996791 C22.3471004,45.5996791 21.711325,44.4522235 22.1346086,43.6872531 L38.0476862,15.5737278 L38.0442996,15.5737278 Z M36.9852406,35.7978319 C36.9852406,36.982686 37.9338039,37.9431488 39.1050585,37.9431488 C40.2780131,37.9431488 41.2265764,36.982686 41.2265764,35.7978319 C41.2265764,34.6129777 40.2780131,33.6525149 39.1050585,33.6525149 C37.9338039,33.6525149 36.9852406,34.6129777 36.9852406,35.7978319 Z M37.4102241,33.2241315 C38.0442996,33.0099397 38.6817749,32.7940481 39.3175503,32.7940481 C39.9550256,32.7940481 40.590801,33.0099397 41.2265764,33.2241315 L43.1356025,28.2892092 C42.0748436,27.646634 40.8032928,27.4307424 39.3175569,27.4307424 C37.8335144,27.4307424 36.3477719,27.646634 35.0745278,28.2892092 L37.4085375,33.2241315 L37.4102241,33.2241315 Z M37.8318078,38.7999157 C37.4068242,38.3715323 36.9818407,37.9414489 36.5585571,37.2988738 C36.1335735,36.6545987 36.1335735,36.0103236 35.9227817,35.3677485 L30.6189869,36.0103236 C30.8314787,37.2988738 31.0439705,38.585724 31.6797459,39.8725609 L31.6797457,39.8725606 C32.2829734,41.118101 33.1515733,42.2164744 34.2245473,43.090536 L37.8318078,38.7998954 L37.8318078,38.7999157 Z M40.8015864,38.7999157 L44.4071467,43.0905563 L44.4071469,43.0905563 C45.4807351,42.2166737 46.3499293,41.1182871 46.9536484,39.8725806 C47.5894238,38.5857304 47.8019155,37.2988802 48.0127074,36.0103434 L42.7089126,35.3677682 C42.4981208,36.0103434 42.4981208,36.6546184 42.0731372,37.2988935 C41.6481537,37.9414686 41.2248701,38.3698521 40.8015864,38.7999354 L40.8015864,38.7999157 Z" id="风险管控"></path>
                </g>
            </g>
        </g>
    </g>
</svg>